<svg height="480pt" viewBox="0 0 480 480.06795" width="480pt" xmlns="http://www.w3.org/2000/svg"><path d="m184.03125 184h112v112h-112zm0 0" fill="#db527d"/><path d="m152.03125 40v32c0 17.671875 14.328125 32 32 32h8l8 48h80l8-48h8c17.671875 0 32-14.328125 32-32v-32c0-17.671875-14.328125-32-32-32h-112c-17.671875 0-32 14.328125-32 32zm0 0" fill="#36afad"/><path d="m208.90625 47.125c-7.351562-7.351562-17.285156-9.335938-22.1875-4.433594s-2.914062 14.832032 4.4375 22.183594 17.28125 9.339844 22.183594 4.4375 2.917968-14.835938-4.433594-22.1875zm0 0" fill="#fdbd40"/><path d="m293.339844 42.691406c-4.898438-4.902344-14.832032-2.917968-22.183594 4.433594s-9.335938 17.285156-4.4375 22.1875c4.902344 4.898438 14.835938 2.914062 22.1875-4.4375s9.335938-17.285156 4.433594-22.183594zm0 0" fill="#fdbd40"/><path d="m328.03125 152v32h-32v32h64v-64zm0 0" fill="#238892"/><path d="m152.03125 184v-32h-32v64h64v-32zm0 0" fill="#238892"/><path d="m208.03125 224h16v16h-16zm0 0" fill="#fdbd40"/><path d="m208.03125 256h16v16h-16zm0 0" fill="#fdbd40"/><path d="m256.03125 224h16v16h-16zm0 0" fill="#fdbd40"/><path d="m256.03125 256h16v16h-16zm0 0" fill="#fdbd40"/><path d="m472.03125 424c-16-128-152-128-152-128h-160s-136 0-152 128zm0 0" fill="#394d5c"/><g fill="#fdbd40"><path d="m192.03125 424s0 48 48 48 48-48 48-48zm0 0"/><path d="m24.03125 424s0 48 48 48 48-48 48-48zm0 0"/><path d="m360.03125 424s0 48 48 48 48-48 48-48zm0 0"/><path d="m280.03125 360c0 22.089844-17.90625 40-40 40-22.089844 0-40-17.910156-40-40s17.910156-40 40-40c22.09375 0 40 17.910156 40 40zm0 0"/><path d="m376.03125 360c0 22.089844-17.90625 40-40 40-22.089844 0-40-17.910156-40-40s17.910156-40 40-40c22.09375 0 40 17.910156 40 40zm0 0"/><path d="m184.03125 360c0 22.089844-17.90625 40-40 40-22.089844 0-40-17.910156-40-40s17.910156-40 40-40c22.09375 0 40 17.910156 40 40zm0 0"/></g><path d="m160.03125 360c0 8.835938-7.164062 16-16 16s-16-7.164062-16-16 7.164062-16 16-16 16 7.164062 16 16zm0 0" fill="#394d5c"/><path d="m256.03125 360c0 8.835938-7.164062 16-16 16s-16-7.164062-16-16 7.164062-16 16-16 16 7.164062 16 16zm0 0" fill="#394d5c"/><path d="m352.03125 360c0 8.835938-7.164062 16-16 16s-16-7.164062-16-16 7.164062-16 16-16 16 7.164062 16 16zm0 0" fill="#394d5c"/><path d="m368.03125 136c0 13.253906-10.746094 24-24 24s-24-10.746094-24-24 10.746094-24 24-24 24 10.746094 24 24zm0 0" fill="#db527d"/><path d="m160.03125 136c0 13.253906-10.746094 24-24 24s-24-10.746094-24-24 10.746094-24 24-24 24 10.746094 24 24zm0 0" fill="#db527d"/><path d="m184.03125 112h1.222656l6.890625 41.320312c.644531 3.855469 3.980469 6.679688 7.886719 6.679688h80c3.910156 0 7.242188-2.824219 7.886719-6.679688l6.890625-41.320312h1.222656c22.082031-.027344 39.972656-17.917969 40-40v-32c-.027344-22.082031-17.917969-39.9726562-40-40h-112c-22.078125.0273438-39.972656 17.917969-40 40v32c.027344 22.082031 17.921875 39.972656 40 40zm-24-72c0-13.253906 10.746094-24 24-24h112c13.253906 0 24 10.746094 24 24v32c0 13.253906-10.746094 24-24 24h-8c-3.90625 0-7.242188 2.824219-7.886719 6.679688l-6.890625 41.320312h-66.445312l-6.890625-41.320312c-.644531-3.855469-3.976563-6.679688-7.886719-6.679688h-8c-13.253906 0-24-10.746094-24-24zm0 0"/><path d="m206.199219 80c4.769531.109375 9.382812-1.703125 12.800781-5.03125 8.144531-8.152344 6.191406-22.863281-4.449219-33.496094-10.640625-10.632812-25.335937-12.585937-33.503906-4.441406s-6.191406 22.863281 4.449219 33.496094c5.394531 5.746094 12.828125 9.144531 20.703125 9.472656zm-13.824219-31.65625c.414062-.269531.910156-.394531 1.402344-.34375 3.648437.351562 7.03125 2.0625 9.46875 4.800781 4.945312 4.933594 5.242187 10.070313 4.441406 10.871094s-5.945312.503906-10.871094-4.441406c-4.929687-4.941407-5.242187-10.085938-4.441406-10.886719zm0 0"/><path d="m273.863281 80c7.871094-.328125 15.300781-3.730469 20.695313-9.472656 10.640625-10.632813 12.59375-25.34375 4.441406-33.503906-8.152344-8.160157-22.863281-6.191407-33.496094 4.449218-10.632812 10.640625-12.59375 25.34375-4.441406 33.503906 3.417969 3.324219 8.03125 5.136719 12.800781 5.023438zm2.96875-27.199219c2.4375-2.730469 5.8125-4.441406 9.457031-4.800781.492188-.050781.988282.070312 1.398438.34375.800781.800781.503906 5.9375-4.441406 10.871094-4.941406 4.9375-10.078125 5.25-10.871094 4.441406s-.503906-5.9375 4.457031-10.855469zm0 0"/><path d="m208.03125 224h16v16h-16zm0 0"/><path d="m208.03125 256h16v16h-16zm0 0"/><path d="m256.03125 224h16v16h-16zm0 0"/><path d="m256.03125 256h16v16h-16zm0 0"/><path d="m8.03125 432h8.59375c2.617188 28.265625 27.058594 49.4375 55.40625 48 28.351562 1.4375 52.789062-19.734375 55.410156-48h57.183594c2.617188 28.265625 27.058594 49.4375 55.40625 48 28.351562 1.4375 52.789062-19.734375 55.410156-48h57.183594c2.617188 28.265625 27.058594 49.4375 55.40625 48 28.351562 1.4375 52.789062-19.734375 55.410156-48h8.589844c2.292969 0 4.476562-.984375 5.996094-2.707031 1.519531-1.71875 2.226562-4.007813 1.941406-6.285157-16.679688-133.464843-158.503906-135.007812-159.9375-135.007812h-16v-64h56c4.417969 0 8-3.582031 8-8v-64c.003906-2.148438-.863281-4.207031-2.398438-5.703125 1.566407-3.207031 2.386719-6.726563 2.398438-10.296875 0-13.253906-10.746094-24-24-24s-24 10.746094-24 24c.015625 3.570312.835938 7.089844 2.402344 10.296875-1.539063 1.496094-2.40625 3.554687-2.402344 5.703125v24h-160v-24c.003906-2.148438-.863281-4.207031-2.398438-5.703125 1.566407-3.207031 2.386719-6.726563 2.398438-10.296875 0-13.253906-10.746094-24-24-24s-24 10.746094-24 24c.015625 3.570312.835938 7.089844 2.402344 10.296875-1.539063 1.496094-2.40625 3.554687-2.402344 5.703125v64c0 4.417969 3.582031 8 8 8h56v64h-16c-1.429688 0-143.253906 1.542969-159.9335938 135.007812-.2851562 2.277344.4218748 4.566407 1.9374998 6.285157 1.519532 1.722656 3.703125 2.707031 5.996094 2.707031zm64 32c-19.492188 1.464844-36.714844-12.605469-39.160156-32h78.28125c-2.539063 19.328125-19.675782 33.34375-39.121094 32zm168 0c-19.492188 1.464844-36.714844-12.605469-39.160156-32h78.28125c-2.539063 19.328125-19.675782 33.34375-39.121094 32zm168 0c-19.507812 1.488281-36.753906-12.589844-39.199219-32h78.320313c-2.539063 19.328125-19.675782 33.34375-39.121094 32zm-64-336c4.417969 0 8 3.582031 8 8s-3.582031 8-8 8-8-3.582031-8-8 3.582031-8 8-8zm-16 64c4.417969 0 8-3.582031 8-8v-24h16v48h-48v-16zm-192-64c4.417969 0 8 3.582031 8 8s-3.582031 8-8 8-8-3.582031-8-8 3.582031-8 8-8zm-8 80v-48h16v24c0 4.417969 3.582031 8 8 8h24v16zm64-16h96v96h-96zm-99.199219 127.519531c21.234375-9.324219 44.027344-14.589843 67.199219-15.519531h160c23.171875.929688 45.96875 6.195312 67.199219 15.519531 40.34375 16.695313 68.992187 53.304688 75.496093 96.480469h-445.390624c6.503906-43.175781 35.152343-79.785156 75.496093-96.480469zm0 0"/><path d="m240.03125 400c22.09375 0 40-17.910156 40-40s-17.90625-40-40-40c-22.089844 0-40 17.910156-40 40 .027344 22.082031 17.921875 39.972656 40 40zm0-64c13.253906 0 24 10.746094 24 24s-10.746094 24-24 24-24-10.746094-24-24 10.746094-24 24-24zm0 0"/><path d="m336.03125 400c22.09375 0 40-17.910156 40-40s-17.90625-40-40-40c-22.089844 0-40 17.910156-40 40 .027344 22.082031 17.921875 39.972656 40 40zm0-64c13.253906 0 24 10.746094 24 24s-10.746094 24-24 24-24-10.746094-24-24 10.746094-24 24-24zm0 0"/><path d="m144.03125 400c22.09375 0 40-17.910156 40-40s-17.90625-40-40-40c-22.089844 0-40 17.910156-40 40 .027344 22.082031 17.921875 39.972656 40 40zm0-64c13.253906 0 24 10.746094 24 24s-10.746094 24-24 24-24-10.746094-24-24 10.746094-24 24-24zm0 0"/><path d="m160.03125 360c0 8.835938-7.164062 16-16 16s-16-7.164062-16-16 7.164062-16 16-16 16 7.164062 16 16zm0 0"/><path d="m256.03125 360c0 8.835938-7.164062 16-16 16s-16-7.164062-16-16 7.164062-16 16-16 16 7.164062 16 16zm0 0"/><path d="m352.03125 360c0 8.835938-7.164062 16-16 16s-16-7.164062-16-16 7.164062-16 16-16 16 7.164062 16 16zm0 0"/></svg>