<svg height="408pt" viewBox="0 0 408 408.191" width="408pt" xmlns="http://www.w3.org/2000/svg"><path d="m292.496094 346.800781h27.199218v27.199219c0 7.511719-6.089843 13.601562-13.597656 13.601562-7.511718 0-13.601562-6.089843-13.601562-13.601562zm0 0" fill="#f9afb8"/><path d="m47.695312 88.398438v312.800781h40.800782v-81.597657h54.398437v81.597657h40.800781v-81.597657h176.800782v81.597657h40.800781v-312.800781zm0 0" fill="#f4f4e6"/><path d="m47.695312 88.398438h95.199219v176.800781h-95.199219zm0 0" fill="#f4f4e6"/><path d="m47.695312 210.800781h95.199219v54.398438h-95.199219zm0 0" fill="#d3843d"/><g fill="#5a6470"><path d="m47.695312 88.398438h-40.800781s0 40.800781 40.800781 40.800781zm0 0"/><path d="m142.894531 88.398438h40.800781s0 40.800781-40.800781 40.800781zm0 0"/><path d="m47.695312 88.398438 20.398438-40.796876 20.402344 40.796876zm0 0"/><path d="m102.097656 88.398438 20.398438-40.796876 20.398437 40.796876zm0 0"/></g><path d="m68.09375 136h13.601562v13.601562h-13.601562zm0 0" fill="#0d2436"/><path d="m108.894531 136h13.601563v13.601562h-13.601563zm0 0" fill="#0d2436"/><path d="m68.09375 231.199219h13.601562v13.601562h-13.601562zm0 0" fill="#0d2436"/><path d="m108.894531 231.199219h13.601563v13.601562h-13.601563zm0 0" fill="#0d2436"/><path d="m251.695312 319.601562s6.800782 40.796876 54.402344 40.796876c47.597656 0 54.398438-40.796876 54.398438-40.796876zm0 0" fill="#f98c96"/><path d="m333.296875 20.402344v27.199218h34c3.753906 0 6.796875 3.042969 6.796875 6.800782v34h27.203125v-40.800782c0-15.023437-12.179687-27.203124-27.203125-27.203124h-40.796875zm0 0" fill="#aabece"/><path d="m333.296875 20.402344v-13.601563h-40.800781l13.601562 13.601563-27.203125 13.597656 27.203125 13.601562-13.601562 13.597657h40.800781zm0 0" fill="#7d8d9c"/><path d="m265.296875 88.398438h68v68h-68zm0 0" fill="#5a6470"/><path d="m251.695312 183.601562h-40.800781v27.199219h-40.796875v54.398438h54.398438v-40.800781h27.199218zm0 0" fill="#5a6470"/><path d="m333.296875 210.800781h68v68h-68zm0 0" fill="#5a6470"/><path d="m278.894531 251.601562h27.203125v40.796876h-27.203125zm0 0" fill="#5a6470"/><path d="m68.09375 136h13.601562v13.601562h-13.601562zm0 0"/><path d="m108.894531 136h13.601563v13.601562h-13.601563zm0 0"/><path d="m68.09375 231.199219h13.601562v13.601562h-13.601562zm0 0"/><path d="m108.894531 231.199219h13.601563v13.601562h-13.601563zm0 0"/><path d="m374.09375 13.601562h-33.996094v-6.800781c0-3.757812-3.046875-6.800781-6.800781-6.800781h-40.800781c-3.753906 0-6.800782 3.042969-6.800782 6.800781 0 1.800781.71875 3.53125 1.992188 4.808594l6.929688 6.925781-18.761719 9.378906c-3.359375 1.683594-4.722657 5.769532-3.039063 9.128907.65625 1.3125 1.722656 2.378906 3.039063 3.039062l18.761719 9.378907-6.929688 6.929687c-2.65625 2.65625-2.65625 6.960937 0 9.617187 1.273438 1.273438 3.003906 1.992188 4.808594 1.992188h40.800781c3.753906 0 6.796875-3.046875 6.796875-6.800781v-6.800781h27.203125v27.199218h-220.199219l-18.519531-37.039062c-2-3.359375-6.347656-4.460938-9.707031-2.460938-1.011719.601563-1.855469 1.449219-2.460938 2.460938l-18.519531 37.042968h-5.191406l-18.519531-37.042968c-2.003907-3.359375-6.347657-4.460938-9.707032-2.460938-1.011718.605469-1.859375 1.449219-2.460937 2.460938l-18.519531 37.042968h-36.597657c-3.753906 0-6.800781 3.042969-6.800781 6.796876 0 15.425781 8.738281 43.726562 40.800781 47.238281v265.5625c0 3.757812 3.046875 6.800781 6.800781 6.800781h40.800782c3.753906 0 6.800781-3.042969 6.800781-6.800781v-74.800781h40.796875v74.800781c0 3.757812 3.046875 6.800781 6.800781 6.800781h40.800781c3.753907 0 6.800782-3.042969 6.800782-6.800781v-74.800781h56.050781c5.851563 18.433593 20.550781 32.707031 39.148437 38.023437v9.578125c0 11.269531 9.132813 20.402344 20.398438 20.402344s20.402344-9.132813 20.402344-20.402344v-9.578125c10.539062-2.878906 20-8.796875 27.199218-17.019531v53.796875c0 3.757812 3.042969 6.800781 6.800782 6.800781h40.796875c3.757812 0 6.800781-3.042969 6.800781-6.800781v-353.597657c-.019531-18.769531-15.230469-33.980468-34-34zm-47.597656 40.800782h-17.585938l1.992188-1.992188c2.65625-2.65625 2.660156-6.960937.003906-9.613281-.515625-.519531-1.113281-.953125-1.769531-1.277344l-15.039063-7.519531 15.039063-7.515625c3.359375-1.679687 4.722656-5.761719 3.042969-9.121094-.328126-.652343-.757813-1.253906-1.277344-1.769531l-1.992188-1.992188h17.585938zm13.601562-13.601563v-13.601562h34c11.261719.011719 20.386719 9.140625 20.398438 20.402343v34h-13.597656v-27.199218c-.007813-7.507813-6.09375-13.59375-13.601563-13.601563zm-13.601562 54.398438v54.402343h-54.402344v-54.402343zm-272 122.402343h81.601562v40.796876h-81.601562zm0-13.601562v-108.800781h81.601562v108.800781zm95.199218-108.800781h26.449219c-1.8125 13.835937-12.632812 24.761719-26.449219 26.710937zm-27.199218-32.394531 9.394531 18.796874h-18.792969zm-54.402344 0 9.398438 18.796874h-18.792969zm-53.679688 32.394531h26.480469v26.71875c-13.871093-1.855469-24.75-12.828125-26.480469-26.71875zm298.480469 278.800781c0 3.753906-3.042969 6.800781-6.796875 6.800781-3.757812 0-6.800781-3.046875-6.800781-6.800781v-7.175781c2.210937.183593 4.410156.375 6.800781.375s4.585938-.191407 6.796875-.375zm-6.796875-20.398438c-28.976562 0-40.6875-16.816406-45.160156-27.203124h90.390625c-4.382813 10.375-15.996094 27.203124-45.230469 27.203124zm61.199219 40.796876v-74.796876c-.085937-.738281-.234375-1.464843-.441406-2.175781-.324219-.773437-.714844-1.519531-1.171875-2.222656-.5625-.488281-1.15625-.941406-1.777344-1.351563-.960938-.769531-2.183594-1.144531-3.410156-1.050781h-176.800782c-3.753906 0-6.800781 3.042969-6.800781 6.800781v74.796876h-27.199219v-74.796876c0-3.757812-3.042968-6.800781-6.800781-6.800781h-54.398437c-3.757813 0-6.800782 3.042969-6.800782 6.800781v74.796876h-27.199218v-122.398438h88.398437c3.757813 0 6.800781-3.042969 6.800781-6.800781v-129.5625c21.394532-2.0625 38.304688-19.035157 40.292969-40.4375h68.507813v61.203125c0 3.753906 3.042968 6.796875 6.800781 6.796875h68c3.753906 0 6.796875-3.042969 6.796875-6.796875v-61.203125h54.402344v108.800781h-61.199219c-3.757813 0-6.800781 3.046875-6.800781 6.800781v68c0 3.753907 3.042968 6.800781 6.800781 6.800781h61.199219v108.796876zm27.199219-122.398438h-54.398438v-54.398438h54.398438zm0 0"/><path d="m251.695312 176.800781h-40.800781c-3.753906 0-6.796875 3.042969-6.796875 6.800781v20.398438h-34c-3.757812 0-6.800781 3.046875-6.800781 6.800781v54.398438c0 3.757812 3.042969 6.800781 6.800781 6.800781h54.398438c3.753906 0 6.800781-3.042969 6.800781-6.800781v-34h20.398437c3.757813 0 6.800782-3.042969 6.800782-6.796875v-40.800782c0-3.757812-3.046875-6.800781-6.800782-6.800781zm-6.800781 40.800781h-20.398437c-3.757813 0-6.800782 3.042969-6.800782 6.796876v34h-40.800781v-40.796876h34c3.757813 0 6.800781-3.046874 6.800781-6.800781v-20.402343h27.199219zm0 0"/><path d="m306.097656 244.800781h-27.203125c-3.753906 0-6.796875 3.042969-6.796875 6.800781v40.796876c0 3.757812 3.042969 6.800781 6.796875 6.800781h27.203125c3.753906 0 6.796875-3.042969 6.796875-6.800781v-40.796876c0-3.757812-3.042969-6.800781-6.796875-6.800781zm-6.800781 40.800781h-13.601563v-27.203124h13.601563zm0 0"/></svg>