<svg height="479pt" viewBox="0 -1 479.99889 479" width="479pt" xmlns="http://www.w3.org/2000/svg"><path d="m359.988281 294.550781c0 39.769531-53.726562 56-120 56-66.269531 0-120-16.230469-120-56 0-39.765625 53.730469-40 120-40 66.273438 0 120 .234375 120 40zm0 0" fill="#eb8cb3"/><path d="m287.988281 46.550781s80-80 136-8c39.601563 50.914063 72 110 24 128-54.535156 20.449219-40-104-72-104-17.433593-.828125-34.550781 4.878907-48 16zm0 0" fill="#eb8cb3"/><path d="m191.988281 46.550781s-80-80-136-8c-39.597656 50.914063-72 110-24 128 54.539063 20.449219 40-104 72-104 17.4375-.828125 34.550781 4.878907 48 16zm0 0" fill="#eb8cb3"/><path d="m367.988281 302.550781-32-32-32 32-32-32-32 32-32-32-32 32-32-32-32 32-39.359375-31.484375c-.390625 5.085938-.640625 10.261719-.640625 15.484375 0 101.601563 75.203125 184 168 184 92.800781 0 168-82.398437 168-184 0-5.222656-.246093-10.398437-.636719-15.484375zm0 0" fill="#f9bb4b"/><path d="m239.988281 446.550781v-16c3.066407 0 75.273438-1.015625 104.707031-67.246093l14.621094 6.496093c-33.726562 75.878907-115.847656 76.75-119.328125 76.75zm0 0" fill="#fff69a"/><path d="m352.832031 346.976562 8-16 14.3125 7.15625-8 16zm0 0" fill="#fff69a"/><path d="m374.390625 153.753906c0 61.855469-60.175781 100.796875-134.402344 100.796875-74.222656 0-134.398437-38.941406-134.398437-100.796875 0-61.855468 60.175781-123.203125 134.398437-123.203125 74.226563 0 134.402344 61.347657 134.402344 123.203125zm0 0" fill="#f9cdd5"/><path d="m239.988281 182.550781-32-32h64zm0 0" fill="#995f5b"/><g fill="#394d5c"><path d="m212.941406 227.074219c-13.003906-.390625-25.371094-5.703125-34.609375-14.867188l11.257813-11.335937c2.214844 2.1875 21.710937 20.152344 42.398437 2.210937v-20.53125h16v24c0 2.125-.84375 4.15625-2.34375 5.65625-8.402343 9.226563-20.226562 14.601563-32.703125 14.867188zm0 0"/><path d="m267.039062 227.074219c-12.480468-.265625-24.300781-5.640625-32.707031-14.867188-1.5-1.5-2.34375-3.53125-2.34375-5.65625v-24h16v20.53125c20.65625 17.941407 40.136719 0 42.402344-2.210937l11.289063 11.335937c-9.246094 9.167969-21.628907 14.480469-34.640626 14.867188zm0 0"/><path d="m199.988281 102.550781h16v16h-16zm0 0"/><path d="m263.988281 102.550781h16v16h-16zm0 0"/><path d="m316.972656 172.808594-9.984375-12.503906c1.777344-1.417969 44-34.535157 95.53125-17.34375l-5.058593 15.199218c-43.152344-14.382812-80.109376 14.359375-80.488282 14.648438zm0 0"/><path d="m324.988281 205.753906-10-12.488281c1.832031-1.464844 45.289063-35.5625 81.800781-8.152344l-9.597656 12.800781c-26.722656-20.074218-61.839844 7.527344-62.203125 7.839844zm0 0"/><path d="m163.003906 172.808594c-.367187-.289063-37.335937-29.046875-80.484375-14.664063l-5.058593-15.199219c51.570312-17.167968 93.753906 15.925782 95.527343 17.34375zm0 0"/><path d="m155.003906 205.753906c-.351562-.28125-35.621094-27.808594-62.214844-7.855468l-9.597656-12.800782c36.535156-27.417968 80 6.6875 81.796875 8.152344zm0 0"/></g><path d="m239.988281 430.550781v16c3.480469 0 85.601563-.871093 119.3125-76.75l-14.621093-6.496093c-29.433594 66.230468-101.640626 67.246093-104.691407 67.246093zm0 0"/><path d="m352.832031 346.976562 8-16 14.3125 7.15625-8 16zm0 0"/><path d="m29.171875 174.039062c4.507813 1.773438 9.296875 2.71875 14.136719 2.792969 4.808594.035157 9.546875-1.140625 13.785156-3.414062 10.238281-6.726563 17.679688-16.949219 20.929688-28.761719l4.496093 13.488281c4.917969-1.632812 9.988281-2.769531 15.132813-3.398437.042968 7.363281.949218 14.695312 2.699218 21.847656-6.199218 1.742188-12.015624 4.617188-17.160156 8.488281l9.597656 12.796875c3.859376-2.882812 8.265626-4.949218 12.953126-6.0625 12.765624 26.507813 35.277343 47.0625 62.832031 57.375-32.28125 4.113282-54.402344 14.761719-56.296875 41.753906l-.878906.886719-33.769532-27.015625c-2.308594-1.851562-5.453125-2.273437-8.171875-1.101562s-4.566406 3.75-4.804687 6.703125c-.445313 5.878906-.664063 11.144531-.664063 16.132812 0 105.867188 78.953125 192 176 192 97.050781 0 176-86.132812 176-192 0-4.988281-.214843-10.253906-.664062-16.101562-.238281-2.953125-2.085938-5.527344-4.800781-6.703125-2.71875-1.171875-5.863282-.75-8.171876 1.101562l-33.769531 26.984375-.878906-.886719c-1.855469-26.992187-24-37.601562-56.296875-41.753906 27.558594-10.316406 50.074219-30.875 62.839844-57.390625 4.683594 1.125 9.085937 3.191407 12.945312 6.078125l9.597656-12.796875c-5.144531-3.871093-10.960937-6.746093-17.160156-8.488281 1.75-7.152344 2.65625-14.480469 2.695313-21.839844 5.148437.621094 10.21875 1.757813 15.136719 3.390625l4.496093-13.488281c3.25 11.8125 10.6875 22.035156 20.929688 28.761719 4.234375 2.273437 8.976562 3.445312 13.78125 3.414062 4.84375-.070312 9.632812-1.015625 14.136719-2.785156 13.203124-4.027344 23.527343-14.371094 27.527343-27.582031 7.128907-25.238282-8.582031-62.144532-48-112.800782-12.792969-18.195312-32.703125-30.113281-54.78125-32.800781-35.066406-3.488281-67.9375 18.839844-83.570312 31.546875-33.390625-13.152344-70.527344-13.152344-103.917969 0-15.6875-12.691406-48.679688-34.984375-83.601562-31.539062-22.078126 2.6875-41.988282 14.609375-54.78125 32.800781-39.449219 50.679687-55.160157 87.585937-48 112.800781 3.992187 13.199219 14.304687 23.539063 27.492187 27.566406zm49.601563-31.4375c3.425781-10.417968 6.304687-21.007812 8.625-31.730468 3.960937-17.015625 9.390624-40.320313 16.589843-40.320313 8.304688-.054687 16.558594 1.296875 24.410157 4-15.789063 18.070313-26.074219 40.277344-29.648438 64-6.785156.628907-13.480469 1.988281-19.976562 4.050781zm127.710937 120.246094c-1.558594.246094-3.007813.960938-4.152344 2.050782l-26.34375 26.34375-22.863281-22.867188c17.519531-3.871094 35.421875-5.726562 53.359375-5.527344zm166.503906 45.953125 27-21.601562c-.308593 96.746093-72 175.351562-160 175.351562s-159.6875-78.605469-160-175.351562l27 21.601562c3.183594 2.546875 7.773438 2.292969 10.65625-.59375l26.34375-26.34375 26.34375 26.34375c3.125 3.125 8.191407 3.125 11.3125 0l26.34375-26.34375 26.34375 26.34375c3.125 3.125 8.191407 3.125 11.3125 0l26.34375-26.34375 26.34375 26.34375c3.125 3.125 8.191407 3.125 11.3125 0l26.34375-26.34375 26.34375 26.34375c2.882813 2.886719 7.472657 3.140625 10.65625.59375zm-99.496093-45.953125c17.941406-.199218 35.84375 1.65625 53.363281 5.527344l-22.867188 22.867188-26.34375-26.34375c-1.140625-1.089844-2.589843-1.804688-4.152343-2.050782zm-2.742188-.054687c-1.660156.210937-3.207031.949219-4.417969 2.105469l-26.34375 26.34375-26.34375-26.34375c-1.207031-1.15625-2.753906-1.894532-4.414062-2.105469 9.597656-.183594 19.785156-.242188 30.757812-.242188 10.976563 0 21.195313.058594 30.761719.242188zm110.480469-124.242188c-3.578125-23.722656-13.863281-45.929687-29.648438-64 7.851563-2.703125 16.105469-4.054687 24.40625-4 7.203125 0 12.632813 23.304688 16.59375 40.320313 2.320313 10.722656 5.199219 21.3125 8.625 31.730468-6.496093-2.0625-13.191406-3.417968-19.976562-4.050781zm-7.304688-121.757812c17.691407 2.320312 33.582031 12.007812 43.753907 26.671875 44.34375 56.976562 49.085937 85.085937 45.253906 98.648437-2.699219 8.273438-9.371094 14.640625-17.761719 16.953125-4.632813 2.253906-10.027344 2.34375-14.734375.246094-11.574219-6.191406-17.265625-30.566406-22.273438-52.078125-6.308593-27.082031-12.277343-52.683594-32.175781-52.683594-12.5-.136719-24.890625 2.382813-36.34375 7.402344-9.4375-8.652344-19.945312-16.058594-31.261719-22.039063 15.214844-11.25 40.144532-25.699218 65.542969-23.121093zm-8.921875 121.542969c-20.992187 1.828124-41.074218 9.429687-58.015625 21.96875l9.984375 12.503906c14.527344-10.425782 31.574219-16.777344 49.378906-18.398438-.058593 6.808594-1.011718 13.582032-2.832031 20.140625-17.644531 1.402344-34.503906 7.894531-48.53125 18.691407l10 12.488281c9.394531-7.03125 20.203125-11.929688 31.679688-14.355469-18.527344 33.402344-61.988281 55.175781-116.679688 55.175781-54.6875 0-98.101562-21.75-116.648437-55.125 11.46875 2.433594 22.269531 7.320313 31.664062 14.328125l9.984375-12.503906c-14.023437-10.804688-30.878906-17.296875-48.527343-18.699219-1.824219-6.566406-2.777344-13.347656-2.832032-20.167969 17.804688 1.621094 34.855469 7.976563 49.375 18.402344l9.984375-12.503906c-16.941406-12.53125-37.019531-20.132812-58.015625-21.960938 9.367188-58.007812 70.113282-99.769531 125.015625-99.769531 54.90625 0 115.640625 41.753907 125.015625 99.785157zm-302.703125-94.871094c10.171875-14.664063 26.058594-24.351563 43.753907-26.671875 25.390624-2.535157 50.320312 11.886719 65.535156 23.121093-11.316406 5.984376-21.820313 13.390626-31.257813 22.039063-11.449219-5.019531-23.839843-7.539063-36.34375-7.402344-19.894531 0-25.863281 25.601563-32.175781 52.683594-5.007812 21.511719-10.695312 45.886719-22.269531 52.078125-4.707031 2.109375-10.109375 2.015625-14.738281-.253906-8.390626-2.308594-15.058594-8.671875-17.757813-16.945313-3.832031-13.5625.910156-41.671875 45.253906-98.648437zm0 0"/><path d="m239.988281 217.160156c7.625 6.289063 17.167969 9.789063 27.050781 9.914063 13-.394531 25.367188-5.707031 34.605469-14.867188l-11.253906-11.335937c-2.234375 2.1875-21.710937 20.152344-42.402344 2.210937v-17.21875l29.65625-29.65625c2.289063-2.285156 2.972657-5.726562 1.734375-8.714843-1.238281-2.988282-4.152344-4.9375-7.390625-4.941407h-64c-3.234375.003907-6.148437 1.953125-7.386719 4.941407-1.238281 2.988281-.554687 6.429687 1.730469 8.714843l29.65625 29.65625v17.21875c-20.65625 17.941407-40.152343 0-42.398437-2.210937l-11.289063 11.335937c9.238281 9.164063 21.605469 14.476563 34.609375 14.867188 9.894532-.121094 19.449219-3.617188 27.078125-9.914063zm12.691407-58.609375-12.691407 12.691407-12.6875-12.691407zm0 0"/><path d="m199.988281 102.550781h16v16h-16zm0 0"/><path d="m263.988281 102.550781h16v16h-16zm0 0"/></svg>