<?xml version="1.0"?>
<svg xmlns="http://www.w3.org/2000/svg" viewBox="0 0 64 64" width="512" height="512"><g id="Filled_outline" data-name="Filled outline"><path d="M32,11c5.517,0,8,13.193,8,27s-3.582,23-8,23c16.016,0,29-9.193,29-23S52,11,32,11Z" style="fill:#f3bb59"/><path d="M32,11c-5.517,0-8,13.193-8,27s3.582,23,8,23C15.984,61,3,51.807,3,38S12,11,32,11Z" style="fill:#f3bb59"/><path d="M40,38c0,13.807-3.582,23-8,23s-8-9.193-8-23,2.483-27,8-27S40,24.193,40,38Z" style="fill:#f3bb59"/><path d="M32,11c5.517,0,8,13.193,8,27s-3.582,23-8,23c11.046,0,20-9.193,20-23S45.793,11,32,11Z" style="fill:#e97131"/><path d="M42,3H33a3,3,0,0,0-3,3v7h4V7h6Z" style="fill:#51a262"/><path d="M32,11c-5.517,0-8,13.193-8,27s3.582,23,8,23c-11.046,0-20-9.193-20-23S18.207,11,32,11Z" style="fill:#e97131"/><path d="M16,23a6.05,6.05,0,0,0-2,5,7,7,0,0,0,7,7c3.7,0,6.749-2.363,7-6Z" style="fill:#25313e"/><path d="M48,23a6.05,6.05,0,0,1,2,5,7,7,0,0,1-7,7c-3.7,0-6.749-2.363-7-6Z" style="fill:#25313e"/><path d="M47,38v6H41V40a47.848,47.848,0,0,1-6,1v6H29V41a51.783,51.783,0,0,1-6-1v4H17V38a68.714,68.714,0,0,1-8-3s.562,12.068,10,18V50h6v5a27.8,27.8,0,0,0,7,1,27.8,27.8,0,0,0,7-1V50h6v3c9.438-5.932,10-18,10-18A41.161,41.161,0,0,1,47,38Z" style="fill:#2f3e4f"/><path d="M35,10.115V8h5a1,1,0,0,0,.9-.553l2-4A1,1,0,0,0,42,2H33a4,4,0,0,0-4,4v4.115C9.1,11.466,2,25.89,2,38,2,51.49,14.166,61.56,30.938,61.968c.09.011.149.01.153.011.161.01.322.018.484.013.142.007.284.008.425.008s.283,0,.424-.008a3.9,3.9,0,0,0,.416-.012,1.666,1.666,0,0,0,.22-.012C49.833,61.562,62,51.49,62,38,62,25.89,54.9,11.466,35,10.115Zm4.247,45.854L40,55.776V51h4v3.81l1.5-.942a18.029,18.029,0,0,1-9.187,5.606,14.98,14.98,0,0,0,1.8-3.234C38.5,56.15,38.888,56.061,39.247,55.969ZM46,51.071V49H38v5.218A25.448,25.448,0,0,1,32,55a25.448,25.448,0,0,1-6-.782V49H18v2.071c-5.609-4.428-7.309-11.321-7.8-14.461,1.276.528,3.259,1.3,5.805,2.12V45h8V41.221c1.287.261,2.609.525,4,.686V48h8V41.925c1.134-.123,2.274-.359,3.385-.588L40,41.211V45h8V38.729c.362-.114.726-.225,1.089-.336a39.473,39.473,0,0,0,4.7-1.664C53.266,39.922,51.54,46.7,46,51.071Zm-21.247,4.9c.359.091.748.181,1.135.271a14.98,14.98,0,0,0,1.8,3.234A18.029,18.029,0,0,1,18.5,53.868l1.5.942V51h4v4.776ZM34,14a.994.994,0,0,0,.674-.27c1.676,2.327,2.985,6.878,3.7,12.964L34.956,28.4l.046.665a7.215,7.215,0,0,0,3.949,5.967C38.978,36.018,39,37,39,38c0,.464-.005.92-.013,1.378h-.006A26.278,26.278,0,0,1,34.955,40L34,40.044V46H30V40.075L29.078,40a34.293,34.293,0,0,1-4.059-.618C25.011,38.925,25,38.47,25,38c0-1,.022-1.982.049-2.965A7.22,7.22,0,0,0,29,29.069l.046-.665L25.625,26.7c.716-6.087,2.025-10.638,3.7-12.965A.994.994,0,0,0,30,14ZM49,28a6.006,6.006,0,0,1-6,6c-3.082,0-5.427-1.787-5.92-4.422l10.731-5.365A5.327,5.327,0,0,1,49,28ZM16.189,24.213,26.92,29.578C26.426,32.213,24.081,34,21,34a6.006,6.006,0,0,1-6-6A5.327,5.327,0,0,1,16.189,24.213Zm7.535,1.531L16.4,22.081c2.345-4.666,6.021-8.328,11.371-9.589C25.506,15.57,24.331,20.983,23.724,25.744ZM13.585,30.988A8.009,8.009,0,0,0,21,36a9.179,9.179,0,0,0,2.037-.232C23.022,36.511,23,37.25,23,38c0,.335.009.656.013.986L22,38.785V43H18V37.267l-.7-.221c-1.633-.514-3.052-1.015-4.225-1.455A40.747,40.747,0,0,1,13.585,30.988ZM48.5,36.48c-.607.186-1.212.372-1.816.57L46,37.276V43H42V38.806l-1.013.181c0-.329.013-.649.013-.987,0-.75-.022-1.489-.037-2.232A9.179,9.179,0,0,0,43,36a8.009,8.009,0,0,0,7.419-5.021,41.061,41.061,0,0,1,.517,4.715C50.137,35.971,49.33,36.227,48.5,36.48ZM40.276,25.744c-.608-4.763-1.783-10.176-4.047-13.253,5.355,1.258,9.033,4.918,11.379,9.587ZM31,6a2,2,0,0,1,2-2h7.382l-1,2H34a1,1,0,0,0-1,1v5H31ZM4,38c0-13.428,7.576-20.831,16.361-24.035-4.781,3.75-8.56,10.4-9.244,20.86-1.078-.442-1.676-.723-1.689-.729l-1.5-.711L8,35.047a27.269,27.269,0,0,0,5.057,13.8,21.808,21.808,0,0,0,7.151,9.277C10.4,54.8,4,47.28,4,38ZM28.325,56.708a23.272,23.272,0,0,0,7.35,0C34.564,58.811,33.269,60,32,60S29.436,58.811,28.325,56.708Zm15.466,1.418a21.808,21.808,0,0,0,7.151-9.277A27.269,27.269,0,0,0,56,35.047l.084-1.808-1.575.891c-.538.3-1.075.564-1.612.8-.676-10.733-4.6-17.467-9.538-21.186C55.46,17.89,60,28.685,60,38,60,47.28,53.6,54.8,43.791,58.126Z"/></g></svg>
