<svg height="380pt" viewBox="-41 1 380 380.65" width="380pt" xmlns="http://www.w3.org/2000/svg"><path d="m95.613281 19.050781h127v88.898438h-127zm0 0" fill="#aabece"/><path d="m121.011719 107.949219h76.203125v266.699219h-76.203125zm0 0" fill="#d3843d"/><path d="m171.8125 177.800781c-3.507812 0-6.347656-2.84375-6.347656-6.351562v-38.097657c0-3.507812 2.839844-6.351562 6.347656-6.351562s6.351562 2.84375 6.351562 6.351562v38.097657c0 3.507812-2.84375 6.351562-6.351562 6.351562zm0 0" fill="#fff69a"/><path d="m6.710938 6.351562h63.5v114.296876h-63.5zm0 0" fill="#7d8d9c"/><path d="m222.613281 19.050781v38.097657h25.398438l12.703125 88.902343h31.746094l-12.699219-127zm0 0" fill="#7d8d9c"/><path d="m70.210938 38.101562h25.402343v57.148438h-25.402343zm0 0" fill="#cfdfe8"/><path d="m171.8125 177.800781c3.507812 0 6.351562-2.84375 6.351562-6.351562v-38.097657c0-3.507812-2.84375-6.351562-6.351562-6.351562s-6.347656 2.84375-6.347656 6.351562v38.097657c0 3.507812 2.839844 6.351562 6.347656 6.351562zm0 0"/><path d="m6.710938 127h63.5c3.507812 0 6.351562-2.84375 6.351562-6.347656v-19.050782h12.699219v6.347657c0 3.507812 2.84375 6.351562 6.351562 6.351562h19.050781v260.347657c0 3.507812 2.84375 6.351562 6.347657 6.351562h76.199219c3.507812 0 6.351562-2.84375 6.351562-6.351562v-260.347657h19.050781c3.507813 0 6.347657-2.84375 6.347657-6.351562v-44.449219h13.542968l11.921875 83.449219c.449219 3.128906 3.125 5.453125 6.285157 5.453125h31.75c3.511718-.003906 6.351562-2.851563 6.351562-6.359375 0-.207031-.011719-.417969-.03125-.625l-12.699219-127c-.324219-3.246094-3.058593-5.71875-6.320312-5.71875h-184.148438c-3.507812 0-6.351562 2.84375-6.351562 6.351562v12.699219h-12.699219v-25.398438c0-3.507812-2.839844-6.351562-6.347656-6.351562h-63.503906c-3.503907 0-6.347657 2.84375-6.347657 6.351562v114.296876c0 3.507812 2.84375 6.351562 6.347657 6.351562zm184.152343 241.300781h-63.5v-254h63.5zm94.582031-228.601562h-19.226562l-11.921875-83.449219c-.445313-3.128906-3.125-5.449219-6.285156-5.449219h-19.050781v-25.402343h45.054687zm-183.484374-114.300781h114.300781v76.203124h-114.300781zm-12.699219 19.050781v44.449219h-12.699219v-44.449219zm-76.199219-31.75h50.800781v101.601562h-50.800781zm0 0"/></svg>