<svg height="480pt" viewBox="0 -31 480 479" width="480pt" xmlns="http://www.w3.org/2000/svg"><path d="m368 184.5h-256c-57.441406 0-104 50.144531-104 112s46.558594 112 104 112c43.257812 0 80.328125-31.527344 96-72h64c15.671875 40.472656 52.742188 72 96 72 57.441406 0 104-50.144531 104-112s-46.558594-112-104-112zm0 0" fill="#cfdfe8"/><path d="m472 8.5h-232c-8.835938 0-16 7.164062-16 16v128h32v-112h216zm0 0" fill="#5a6470"/><path d="m152 280.5h-32v-32h-32v32h-32v32h32v32h32v-32h32zm0 0" fill="#5a6470"/><path d="m392 248.5c0 8.835938-7.164062 16-16 16s-16-7.164062-16-16 7.164062-16 16-16 16 7.164062 16 16zm0 0" fill="#fca710"/><path d="m392 344.5c0 8.835938-7.164062 16-16 16s-16-7.164062-16-16 7.164062-16 16-16 16 7.164062 16 16zm0 0" fill="#238892"/><path d="m344 296.5c0 8.835938-7.164062 16-16 16s-16-7.164062-16-16 7.164062-16 16-16 16 7.164062 16 16zm0 0" fill="#e9686a"/><path d="m440 296.5c0 8.835938-7.164062 16-16 16s-16-7.164062-16-16 7.164062-16 16-16 16 7.164062 16 16zm0 0" fill="#2d75bb"/><g fill="#5a6470"><path d="m200 208.5h80v16h-80zm0 0"/><path d="m216 288.5h16v16h-16zm0 0"/><path d="m248 288.5h16v16h-16zm0 0"/><path d="m296 208.5h16v16h-16zm0 0"/><path d="m168 208.5h16v16h-16zm0 0"/></g><path d="m200 152.5h80v32h-80zm0 0" fill="#a4acb2"/><path d="m152 272.5h-24v-24c0-4.417969-3.582031-8-8-8h-32c-4.417969 0-8 3.582031-8 8v24h-24c-4.417969 0-8 3.582031-8 8v32c0 4.417969 3.582031 8 8 8h24v24c0 4.417969 3.582031 8 8 8h32c4.417969 0 8-3.582031 8-8v-24h24c4.417969 0 8-3.582031 8-8v-32c0-4.417969-3.582031-8-8-8zm-8 32h-24c-4.417969 0-8 3.582031-8 8v24h-16v-24c0-4.417969-3.582031-8-8-8h-24v-16h24c4.417969 0 8-3.582031 8-8v-24h16v24c0 4.417969 3.582031 8 8 8h24zm0 0"/><path d="m376 272.5c13.253906 0 24-10.746094 24-24s-10.746094-24-24-24-24 10.746094-24 24 10.746094 24 24 24zm0-32c4.417969 0 8 3.582031 8 8s-3.582031 8-8 8-8-3.582031-8-8 3.582031-8 8-8zm0 0"/><path d="m376 320.5c-13.253906 0-24 10.746094-24 24s10.746094 24 24 24 24-10.746094 24-24-10.746094-24-24-24zm0 32c-4.417969 0-8-3.582031-8-8s3.582031-8 8-8 8 3.582031 8 8-3.582031 8-8 8zm0 0"/><path d="m304 296.5c0 13.253906 10.746094 24 24 24s24-10.746094 24-24-10.746094-24-24-24-24 10.746094-24 24zm24-8c4.417969 0 8 3.582031 8 8s-3.582031 8-8 8-8-3.582031-8-8 3.582031-8 8-8zm0 0"/><path d="m424 320.5c13.253906 0 24-10.746094 24-24s-10.746094-24-24-24-24 10.746094-24 24 10.746094 24 24 24zm0-32c4.417969 0 8 3.582031 8 8s-3.582031 8-8 8-8-3.582031-8-8 3.582031-8 8-8zm0 0"/><path d="m200 208.5h80v16h-80zm0 0"/><path d="m216 288.5h16v16h-16zm0 0"/><path d="m248 288.5h16v16h-16zm0 0"/><path d="m296 208.5h16v16h-16zm0 0"/><path d="m168 208.5h16v16h-16zm0 0"/><path d="m472 .5h-232c-13.253906 0-24 10.746094-24 24v120h-16c-4.417969 0-8 3.582031-8 8v24h-80c-61.761719 0-112 53.832031-112 120s50.238281 120 112 120c42.398438 0 82.488281-28.710938 101.359375-72h53.28125c18.871094 43.289062 58.960937 72 101.359375 72 61.761719 0 112-53.832031 112-120s-50.238281-120-112-120h-80v-24c0-4.417969-3.582031-8-8-8h-16v-96h208c4.417969 0 8-3.582031 8-8v-32c0-4.417969-3.582031-8-8-8zm-104 192c52.9375 0 96 46.65625 96 104s-43.0625 104-96 104c-37.464844 0-73.046875-26.878906-88.535156-66.886719-1.195313-3.082031-4.160156-5.113281-7.464844-5.113281h-64c-3.304688 0-6.269531 2.03125-7.464844 5.113281-15.488281 40.007813-51.070312 66.886719-88.535156 66.886719-52.9375 0-96-46.65625-96-104s43.0625-104 96-104zm-96-32v16h-64v-16zm192-128h-208c-4.417969 0-8 3.582031-8 8v104h-16v-120c0-4.417969 3.582031-8 8-8h224zm0 0"/></svg>