<svg height="480pt" viewBox="0 -16 480.00792 480" width="480pt" xmlns="http://www.w3.org/2000/svg"><path d="m256.007812 8.046875c-49.667968-1.097656-98.027343 15.96875-136 48 17.980469-6.230469 36.992188-8.949219 56-8 92.785157 0 168 75.214844 168 168s-75.214843 168-168 168c-31.03125.621094-61.582031-7.710937-88-24 40.636719 51.183594 102.648438 80.714844 168 80 119.292969 0 216-96.707031 216-216s-96.707031-216-216-216zm0 0" fill="#fcf05a"/><path d="m152.007812 216.046875v-8c.574219-6.523437-1.769531-12.96875-6.402343-17.597656-4.628907-4.632813-11.074219-6.976563-17.597657-6.402344h-8c-4.742187-15.199219-16-24-40-24-17.816406 0-36.144531 7.457031-40 24h-8c-6.417968-.179687-12.628906 2.289063-17.167968 6.832031-4.542969 4.539063-7.011719 10.75-6.832032 17.167969v8zm0 0" fill="#98a5a6"/><path d="m384.007812 320.046875v-16c0-25.144531-18.488281-32-40-32h-8c-7.375-23.925781-24-40-56-40-27.710937 0-50 14.007813-56 40h-8c-21.511718 0-40 10.398437-40 32v16zm0 0" fill="#98a5a6"/><g fill="#58b1cc"><path d="m240.007812 136.046875c-22.082031-.027344-39.972656-17.917969-40-40 0-4.417969 3.582032-8 8-8 4.417969 0 8 3.582031 8 8 0 13.253906 10.746094 24 24 24 4.417969 0 8 3.582031 8 8s-3.582031 8-8 8zm0 0"/><path d="m240.007812 136.046875c-22.082031-.027344-39.972656-17.917969-40-40 0-4.417969 3.582032-8 8-8 4.417969 0 8 3.582031 8 8 0 13.253906 10.746094 24 24 24 4.417969 0 8 3.582031 8 8s-3.582031 8-8 8zm0 0"/><path d="m176.007812 136.046875c-4.417968 0-8-3.582031-8-8s3.582032-8 8-8c13.253907 0 24-10.746094 24-24 0-4.417969 3.582032-8 8-8 4.417969 0 8 3.582031 8 8-.027343 22.082031-17.917968 39.972656-40 40zm0 0"/><path d="m208.007812 168.046875c-4.417968 0-8-3.582031-8-8 .027344-22.078125 17.917969-39.972656 40-40 4.417969 0 8 3.582031 8 8s-3.582031 8-8 8c-13.253906 0-24 10.746094-24 24 0 4.417969-3.582031 8-8 8zm0 0"/><path d="m208.007812 168.046875c-4.417968 0-8-3.582031-8-8 .027344-22.078125 17.917969-39.972656 40-40 4.417969 0 8 3.582031 8 8s-3.582031 8-8 8c-13.253906 0-24 10.746094-24 24 0 4.417969-3.582031 8-8 8zm0 0"/><path d="m208.007812 168.046875c-4.417968 0-8-3.582031-8-8 0-13.253906-10.746093-24-24-24-4.417968 0-8-3.582031-8-8s3.582032-8 8-8c22.082032.027344 39.972657 17.921875 40 40 0 4.417969-3.582031 8-8 8zm0 0"/><path d="m72.007812 304.046875c-22.082031-.027344-39.972656-17.917969-40-40 0-4.417969 3.582032-8 8-8 4.417969 0 8 3.582031 8 8 0 13.253906 10.746094 24 24 24 4.417969 0 8 3.582031 8 8s-3.582031 8-8 8zm0 0"/><path d="m72.007812 304.046875c-22.082031-.027344-39.972656-17.917969-40-40 0-4.417969 3.582032-8 8-8 4.417969 0 8 3.582031 8 8 0 13.253906 10.746094 24 24 24 4.417969 0 8 3.582031 8 8s-3.582031 8-8 8zm0 0"/><path d="m8.007812 304.046875c-4.417968 0-7.9999995-3.582031-7.9999995-8s3.5820315-8 7.9999995-8c13.253907 0 24-10.746094 24-24 0-4.417969 3.582032-8 8-8 4.417969 0 8 3.582031 8 8-.027343 22.082031-17.917968 39.972656-40 40zm0 0"/><path d="m40.007812 336.046875c-4.417968 0-8-3.582031-8-8 .027344-22.078125 17.917969-39.972656 40-40 4.417969 0 8 3.582031 8 8s-3.582031 8-8 8c-13.253906 0-24 10.746094-24 24 0 4.417969-3.582031 8-8 8zm0 0"/><path d="m40.007812 336.046875c-4.417968 0-8-3.582031-8-8 .027344-22.078125 17.917969-39.972656 40-40 4.417969 0 8 3.582031 8 8s-3.582031 8-8 8c-13.253906 0-24 10.746094-24 24 0 4.417969-3.582031 8-8 8zm0 0"/><path d="m40.007812 336.046875c-4.417968 0-8-3.582031-8-8 0-13.253906-10.746093-24-24-24-4.417968 0-7.9999995-3.582031-7.9999995-8s3.5820315-8 7.9999995-8c22.082032.027344 39.972657 17.921875 40 40 0 4.417969-3.582031 8-8 8zm0 0"/></g><path d="m112.007812 112.046875h16v16h-16zm0 0" fill="#d9176c"/><path d="m248.007812 176.046875h16v16h-16zm0 0" fill="#d9176c"/><path d="m120.007812 264.046875h16v16h-16zm0 0" fill="#d9176c"/><path d="m16.007812 376.046875h16v16h-16zm0 0" fill="#d9176c"/><path d="m408.007812 424.046875h16v16h-16zm0 0" fill="#d9176c"/><path d="m439.601562 274.574219-15.203124-5.054688c5.183593-14.59375 7.757812-29.984375 7.609374-45.472656-.640624-38.957031-14.121093-76.613281-38.34375-107.128906l12.6875-9.742188c26.378907 33.304688 41.023438 74.390625 41.65625 116.871094.136719 17.203125-2.707031 34.296875-8.40625 50.527344zm0 0" fill="#fffce3"/><path d="m412.429688 295.199219 7.15625-14.308594 16 7.996094-7.15625 14.3125zm0 0" fill="#fffce3"/><path d="m256.007812.046875c-51.546874-1.039063-101.714843 16.691406-141.160156 49.886719-2.992187 2.511718-3.730468 6.816406-1.75 10.183594 1.980469 3.367187 6.101563 4.8125 9.75 3.417968 17.070313-5.90625 35.121094-8.449218 53.160156-7.488281 48.042969-.160156 93.601563 21.347656 124.003907 58.546875 30.40625 37.199219 42.417969 86.121094 32.699219 133.171875-12.605469-16.082031-32.304688-24.949219-52.703126-23.71875-30.328124 0-53.519531 15.199219-62.023437 40h-1.976563c-28.710937 0-48 16.082031-48 40v16c0 4.417969 3.582032 8 8 8h114.230469c-30.015625 30.796875-71.226562 48.113281-114.230469 48-29.53125.671875-58.621093-7.238281-83.742187-22.777344-3.304687-2.074219-7.621094-1.46875-10.222656 1.4375-2.601563 2.90625-2.726563 7.265625-.300781 10.316407 42.28125 52.9375 106.519531 83.542968 174.265624 83.023437 123.710938 0 224-100.289063 224-224s-100.289062-224-224-224zm-72 304c0-17.695313 16.527344-24 32-24h8c3.726563.003906 6.960938-2.570313 7.800782-6.199219 4.878906-21.167968 22.894531-33.800781 48.199218-33.800781 25.761719 0 41.128907 10.914063 48.351563 34.398437 1.050781 3.339844 4.148437 5.609376 7.648437 5.601563h8c28.199219 0 32 12.136719 32 24v8h-192zm72 128c-48.480468.277344-95.511718-16.507813-132.863281-47.414063 17.167969 5.027344 34.976563 7.523438 52.863281 7.414063 52.535157.125 102.34375-23.375 135.65625-64h72.34375c4.417969 0 8-3.582031 8-8v-16c0-14.785156-6.167968-39.457031-46.808593-39.953125 15.222656-53.066406 4.605469-110.203125-28.664063-154.257812-33.269531-44.058594-85.320312-69.90625-140.527344-69.789063-7.015624 0-13.472656.136719-19.601562.511719 30.546875-16.582032 64.847656-25.023438 99.601562-24.511719 114.875 0 208 93.125 208 208s-93.125 208-208 208zm0 0"/><path d="m8.007812 224.046875h144c4.417969 0 8-3.582031 8-8v-8c.605469-8.65625-2.570312-17.152344-8.710937-23.289063-6.136719-6.136718-14.628906-9.316406-23.289063-8.710937h-2.480468c-7.269532-16.136719-22.222656-24-45.519532-24-21.847656 0-39.023437 9.222656-45.695312 24h-2.304688c-8.542968-.191406-16.796874 3.117187-22.839843 9.160156s-9.351563 14.296875-9.1601565 22.839844v8c0 4.417969 3.5820315 8 7.9999995 8zm24-32h8c3.714844 0 6.945313-2.558594 7.792969-6.175781 3.0625-13.160156 19.261719-17.824219 32.207031-17.824219 23.417969 0 29.390626 8.800781 32.359376 18.398437 1.050781 3.335938 4.144531 5.605469 7.640624 5.601563h8c4.386719-.546875 8.785157.960937 11.910157 4.089844 3.128906 3.125 4.636719 7.523437 4.089843 11.910156h-128c-.199218-4.300781 1.421876-8.488281 4.464844-11.535156 3.046875-3.042969 7.234375-4.664063 11.535156-4.464844zm0 0"/><path d="m240.007812 120.046875c-13.253906 0-24-10.746094-24-24 0-4.417969-3.582031-8-8-8-4.417968 0-8 3.582031-8 8 0 13.253906-10.746093 24-24 24-4.417968 0-8 3.582031-8 8s3.582032 8 8 8c13.253907 0 24 10.746094 24 24 0 4.417969 3.582032 8 8 8 4.417969 0 8-3.582031 8-8 0-13.253906 10.746094-24 24-24 4.417969 0 8-3.582031 8-8s-3.582031-8-8-8zm-32 16.25c-2.332031-3.140625-5.109374-5.917969-8.246093-8.25 3.136719-2.332031 5.914062-5.109375 8.246093-8.246094 2.332032 3.136719 5.109376 5.914063 8.25 8.246094-3.140624 2.332031-5.917968 5.109375-8.25 8.25zm0 0"/><path d="m72.007812 288.046875c-13.253906 0-24-10.746094-24-24 0-4.417969-3.582031-8-8-8-4.417968 0-8 3.582031-8 8 0 13.253906-10.746093 24-24 24-4.417968 0-7.9999995 3.582031-7.9999995 8s3.5820315 8 7.9999995 8c13.253907 0 24 10.746094 24 24 0 4.417969 3.582032 8 8 8 4.417969 0 8-3.582031 8-8 0-13.253906 10.746094-24 24-24 4.417969 0 8-3.582031 8-8s-3.582031-8-8-8zm-32 16.25c-2.332031-3.140625-5.109374-5.917969-8.246093-8.25 3.136719-2.332031 5.914062-5.109375 8.246093-8.246094 2.332032 3.136719 5.109376 5.914063 8.25 8.246094-3.140624 2.332031-5.917968 5.109375-8.25 8.25zm0 0"/><path d="m112.007812 112.046875h16v16h-16zm0 0"/><path d="m248.007812 176.046875h16v16h-16zm0 0"/><path d="m120.007812 264.046875h16v16h-16zm0 0"/><path d="m16.007812 376.046875h16v16h-16zm0 0"/><path d="m408.007812 424.046875h16v16h-16zm0 0"/><path d="m432.007812 224.046875c.152344 15.484375-2.414062 30.878906-7.59375 45.472656l15.203126 5.054688c5.691406-16.230469 8.53125-33.324219 8.390624-50.527344-.632812-42.480469-15.277343-83.566406-41.65625-116.871094l-12.6875 9.742188c24.222657 30.515625 37.703126 68.171875 38.34375 107.128906zm0 0"/><path d="m412.429688 295.199219 7.15625-14.308594 16 7.996094-7.15625 14.3125zm0 0"/></svg>