<svg height="384pt" viewBox="0 0 384 384.37957" width="384pt" xmlns="http://www.w3.org/2000/svg"><path d="m160.1875 32.003906v-25.601562l-25.597656 25.601562h-76.800782v38.398438h128v-64zm0 0" fill="#f49e21"/><path d="m198.585938 198.402344h-166.398438c-14.136719 0-25.597656 11.460937-25.597656 25.601562v38.398438h38.398437v115.199218h153.597657v-140.800781h38.398437v-38.398437zm0 0" fill="#5a6470"/><g fill="#ffd782"><path d="m57.789062 70.402344h128v102.398437h-128zm0 0"/><path d="m262.585938 160.003906v38.398438h-25.597657v38.398437h64v-76.796875zm0 0"/><path d="m300.988281 128.003906c0 10.601563-8.597656 19.199219-19.203125 19.199219-10.601562 0-19.199218-8.597656-19.199218-19.199219 0-10.605468 8.597656-19.203125 19.199218-19.203125 10.605469 0 19.203125 8.597657 19.203125 19.203125zm0 0"/><path d="m44.988281 300.800781v-38.398437h-38.398437v76.796875h76.800781v-38.398438zm0 0"/><path d="m134.589844 320c0 10.605469-8.597656 19.199219-19.203125 19.199219-10.601563 0-19.199219-8.59375-19.199219-19.199219 0-10.601562 8.597656-19.199219 19.199219-19.199219 10.605469 0 19.203125 8.597657 19.203125 19.199219zm0 0"/></g><path d="m248.507812 92.164062-17.917968-23.890624-14.082032 18.769531-10.238281-7.679688 24.320313-32.429687 20.476562 27.308594 20.480469-15.359376 7.679687 10.242188zm0 0" fill="#f49e21"/><path d="m224.1875 108.800781h25.597656v38.402344h-25.597656c-7.070312 0-12.800781-5.730469-12.800781-12.800781v-12.800782c0-7.066406 5.730469-12.800781 12.800781-12.800781zm0 0" fill="#5a6470"/><path d="m300.988281 115.203125h38.398438v25.601563h-38.398438zm0 0" fill="#0d2436"/><path d="m384.1875 384h-12.800781v-243.195312c-.003907-3.535157-2.867188-6.398438-6.398438-6.402344h-25.601562v-12.796875h25.601562c10.597657.011719 19.1875 8.597656 19.199219 19.199219zm0 0" fill="#5a6470"/><path d="m83.390625 121.601562h76.796875v51.199219h-76.796875zm0 0" fill="#ed917e"/><path d="m89.789062 89.601562h12.800782v12.800782h-12.800782zm0 0" fill="#0d2436"/><path d="m140.988281 89.601562h12.800781v12.800782h-12.800781zm0 0" fill="#0d2436"/><path d="m83.390625 198.402344h76.796875v38.398437h-76.796875zm0 0" fill="#ffd782"/><path d="m128.1875 162.652344-12.800781-12.800782-8.273438 8.273438-9.050781-9.046875 17.324219-17.324219 12.800781 12.800782 8.277344-8.277344 9.050781 9.050781zm0 0" fill="#dd3e46"/><path d="m44.988281 268.800781c-3.53125 0-6.398437-2.863281-6.398437-6.398437v-25.601563c0-3.535156 2.867187-6.398437 6.398437-6.398437 3.535157 0 6.402344 2.863281 6.402344 6.398437v25.601563c0 3.535156-2.867187 6.398437-6.402344 6.398437zm0 0" fill="#aabece"/><path d="m230.589844 68.273438 17.917968 23.890624 30.71875-23.039062-7.679687-10.242188-20.480469 15.359376-20.476562-27.308594-24.320313 32.429687 10.238281 7.679688zm0 0"/><path d="m256.1875 160.003906v31.996094h-224c-17.664062.023438-31.976562 14.335938-31.996094 32v115.199219c0 3.535156 2.863282 6.398437 6.398438 6.398437h32v32c0 3.535156 2.867187 6.402344 6.398437 6.402344h153.597657c3.535156 0 6.402343-2.867188 6.402343-6.402344v-134.398437h95.996094c3.535156 0 6.402344-2.863281 6.402344-6.398438v-76.796875c0-3.535156-2.867188-6.402344-6.402344-6.402344h-38.398437c-3.53125 0-6.398438 2.867188-6.398438 6.402344zm-166.398438 44.796875h64v25.601563h-64zm-76.800781 128v-64h25.601563v32c0 3.535157 2.867187 6.398438 6.398437 6.398438h32v25.601562zm217.601563-102.398437h-32c-3.535156 0-6.402344 2.863281-6.402344 6.398437v134.398438h-140.796875v-25.597657h32c3.53125 0 6.398437-2.867187 6.398437-6.402343v-38.398438c0-3.535156-2.867187-6.398437-6.398437-6.398437h-32v-57.601563c0-3.53125-2.867187-6.398437-6.402344-6.398437-3.53125 0-6.398437 2.867187-6.398437 6.398437v19.203125h-25.601563v-32c.015625-10.597656 8.601563-19.1875 19.203125-19.199218h44.796875v31.996093c0 3.535157 2.867188 6.402344 6.402344 6.402344h76.796875c3.535156 0 6.402344-2.867187 6.402344-6.402344v-31.996093h64zm38.398437-32v-32h25.597657v64h-51.199219v-25.601563h19.199219c3.535156 0 6.402343-2.863281 6.402343-6.398437zm0 0"/><path d="m249.785156 102.402344h-25.597656c-10.597656.011718-19.1875 8.601562-19.199219 19.199218v12.800782c.011719 10.597656 8.597657 19.1875 19.199219 19.199218h25.597656c3.535156 0 6.402344-2.863281 6.402344-6.398437v-38.402344c0-3.53125-2.867188-6.398437-6.402344-6.398437zm-6.398437 38.402344h-19.199219c-3.53125-.007813-6.394531-2.867188-6.398438-6.402344v-12.796875c.003907-3.535157 2.867188-6.398438 6.398438-6.402344h19.199219zm0 0"/><path d="m364.984375 121.601562h-19.199219v-6.398437c0-3.535156-2.863281-6.398437-6.398437-6.398437h-38.398438c-.675781.023437-1.339843.160156-1.96875.394531-10.382812-9.59375-26.578125-8.953125-36.175781 1.429687-9.59375 10.386719-8.953125 26.582032 1.429688 36.175782 9.8125 9.0625 24.9375 9.0625 34.75 0 .628906.238281 1.292968.371093 1.964843.398437h38.398438c3.535156 0 6.398437-2.863281 6.398437-6.398437v-6.402344h19.203125c3.53125.007812 6.394531 2.867187 6.398438 6.402344v243.195312h12.800781v-243.195312c-.015625-10.601563-8.601562-19.191407-19.203125-19.203126zm-83.199219 19.203126c-7.066406 0-12.796875-5.730469-12.796875-12.800782 0-7.070312 5.730469-12.800781 12.796875-12.800781 7.070313 0 12.800782 5.730469 12.800782 12.800781-.007813 7.066406-5.730469 12.792969-12.800782 12.800782zm51.199219-6.402344h-25.597656v-12.800782h25.597656zm0 0"/><path d="m162.636719.492188c-2.390625-1-5.148438-.4492192-6.972657 1.386718l-23.726562 23.726563h-74.148438c-3.535156 0-6.398437 2.863281-6.398437 6.398437v140.796875c0 3.535157 2.863281 6.402344 6.398437 6.402344h128c3.535157 0 6.398438-2.867187 6.398438-6.402344v-166.398437c0-3.53125-2.863281-6.39843775-6.398438-6.39843775-1.699218 0-3.328124.67578175-4.527343 1.87499975l-14.671875 14.675782v-10.152344c0-2.585938-1.558594-4.917969-3.953125-5.910156zm-8.847657 165.910156h-64v-38.398438h64zm25.597657 0h-12.796875v-44.800782c0-3.535156-2.867188-6.398437-6.402344-6.398437h-76.796875c-3.535156 0-6.402344 2.863281-6.402344 6.398437v44.800782h-12.796875v-89.597656h115.195313zm0-144.546875v42.148437h-115.195313v-25.601562h70.398438c1.695312 0 3.324218-.675782 4.523437-1.875l14.675781-14.671875v10.148437c0 3.535156 2.863282 6.398438 6.398438 6.398438 1.699219 0 3.324219-.671875 4.527344-1.871094zm0 0"/><path d="m115.386719 345.601562c14.140625 0 25.601562-11.464843 25.601562-25.601562s-11.460937-25.597656-25.601562-25.597656c-14.136719 0-25.597657 11.460937-25.597657 25.597656.015626 14.132812 11.46875 25.585938 25.597657 25.601562zm0-38.402343c7.070312 0 12.800781 5.730469 12.800781 12.800781s-5.730469 12.800781-12.800781 12.800781c-7.066407 0-12.796875-5.730469-12.796875-12.800781.007812-7.066406 5.734375-12.792969 12.796875-12.800781zm0 0"/><path d="m89.789062 89.601562h12.800782v12.800782h-12.800782zm0 0"/><path d="m140.988281 89.601562h12.800781v12.800782h-12.800781zm0 0"/><path d="m115.386719 149.851562 12.800781 12.800782 17.328125-17.324219-9.050781-9.050781-8.277344 8.277344-12.800781-12.800782-17.324219 17.324219 9.050781 9.046875zm0 0"/></svg>