<?xml version="1.0"?>
<svg xmlns="http://www.w3.org/2000/svg" viewBox="0 0 64 64" width="512" height="512"><g id="Filled_outline" data-name="Filled outline"><rect x="3" y="3" width="58" height="44" style="fill:#e8e8e8"/><polygon points="49.293 36.707 46.293 33.707 47.269 31.854 50.707 35.293 49.293 36.707" style="fill:#113142"/><circle cx="53" cy="39" r="5" style="fill:#7d8d9c"/><circle cx="11" cy="37" r="4" style="fill:#7d8d9c"/><circle cx="9" cy="28" r="2" style="fill:#7d8d9c"/><path d="M32,40a16.908,16.908,0,0,1-9.634-3H22V47H42V37h-.366A16.908,16.908,0,0,1,32,40Z" style="fill:#7d8d9c"/><path d="M42,11V3H22v8a17.481,17.481,0,0,0-7,14,17,17,0,0,0,34,0A17.481,17.481,0,0,0,42,11Z" style="fill:#bfbfbf"/><rect x="10" y="44" width="2" height="3" style="fill:#de463e"/><rect x="30" y="13" width="4" height="2" style="fill:#113142"/><rect x="26" y="13" width="2" height="2" style="fill:#113142"/><rect x="18" y="47" width="12" height="4" style="fill:#bfbfbf"/><rect x="34" y="47" width="12" height="4" style="fill:#bfbfbf"/><rect x="23" y="51" width="2" height="11" style="fill:#7d8d9c"/><rect x="39" y="51" width="2" height="11" style="fill:#7d8d9c"/><path d="M32,39l0-2c.449,0,11-.182,11-12h2C45,38.84,32.13,39,32,39Z" style="fill:#113142"/><rect x="43" y="21" width="2" height="2" style="fill:#113142"/><path d="M62,2H2V48H17v4h6V62h2V52h6V48h2v4h6V62h2V52h6V48H62ZM41,4v7.508l.411.3A16.551,16.551,0,0,1,48,25a16,16,0,0,1-32,0,16.551,16.551,0,0,1,6.589-13.192l.411-.3V4ZM12,46V44H10v2H4V4H21v6.5A18.624,18.624,0,0,0,14,25a17.964,17.964,0,0,0,7,14.216V46Zm17,4H19V48H29Zm-6-4V40.564a17.844,17.844,0,0,0,18,0V46Zm22,4H35V48H45Zm15-4H43V39.216a18.118,18.118,0,0,0,4.194-4.608l1.639,1.639a5.015,5.015,0,1,0,1.414-1.414L48.2,32.789A17.872,17.872,0,0,0,50,25a18.624,18.624,0,0,0-7-14.5V4H60ZM53,36a3,3,0,1,1-3,3A3,3,0,0,1,53,36Z"/><path d="M11,32a5,5,0,1,0,5,5A5.006,5.006,0,0,0,11,32Zm0,8a3,3,0,1,1,3-3A3,3,0,0,1,11,40Z"/><path d="M9,31a3,3,0,1,0-3-3A3,3,0,0,0,9,31Zm0-4a1,1,0,1,1-1,1A1,1,0,0,1,9,27Z"/><rect x="30" y="13" width="4" height="2"/><rect x="26" y="13" width="2" height="2"/><path d="M32,39c.13,0,13-.16,13-14H43c0,11.818-10.553,12-11,12Z"/><rect x="43" y="21" width="2" height="2"/></g></svg>
