<?xml version="1.0"?>
<svg xmlns="http://www.w3.org/2000/svg" viewBox="0 0 64 64" width="512" height="512"><g id="Filled_outline" data-name="Filled outline"><path d="M29,3h6A20,20,0,0,1,55,23V61a0,0,0,0,1,0,0H9a0,0,0,0,1,0,0V23A20,20,0,0,1,29,3Z" style="fill:#5a6470"/><path d="M45,48,37,61H27L19,48h0a6,6,0,0,1-6-6V23A14,14,0,0,1,27,9H37A14,14,0,0,1,51,23V42a6,6,0,0,1-6,6Z" style="fill:#cfdfe8"/><path d="M19,21s7-1,7-6a2,2,0,0,1,4,0s2,10-11,10a2,2,0,0,1,0-4Z" style="fill:#143441"/><path d="M45,21s-7-1-7-6a2,2,0,0,0-4,0S32,25,45,25a2,2,0,0,0,0-4Z" style="fill:#143441"/><path d="M26.243,29.97l-.486-1.94c3.09-.773,3.237-2.813,3.243-3.044L31,25C31,25.154,30.946,28.794,26.243,29.97Z" style="fill:#143441"/><path d="M37.757,29.97C33.054,28.794,33,25.154,33,25h1l1-.014c.006.231.153,2.271,3.243,3.044Z" style="fill:#143441"/><path d="M38,40c0,6.075-2.868,18-6,18s-6-11.925-6-18,2.686-7,6-7S38,33.925,38,40Z" style="fill:#143441"/><path d="M19,48h0a6,6,0,0,1-6-6V32l6,2Z" style="fill:#aec0d1"/><path d="M45,48h0a6,6,0,0,0,6-6V32l-6,2Z" style="fill:#aec0d1"/><path d="M29.139,22.268A9.633,9.633,0,0,0,31,14.9a3,3,0,0,0-6,.1c0,3.86-5.478,4.9-6.088,5A3,3,0,0,0,19,26C23.7,26,27.108,24.744,29.139,22.268ZM19.012,24a1,1,0,1,1,0-2l.134-.01C19.462,21.944,27,20.8,27,15.012A1,1,0,1,1,29,15l.019.193a7.743,7.743,0,0,1-1.44,5.823C25.944,23,23.058,24,19.012,24Z"/><path d="M45,26a3,3,0,0,0,.087-6C44.477,19.9,39,18.877,39,15a3,3,0,0,0-6-.1,9.633,9.633,0,0,0,1.859,7.367C36.892,24.744,40.3,26,45,26ZM34.98,15.2l.02-.184A1,1,0,1,1,37,15c0,5.8,7.538,6.944,7.858,6.99l.13.01A1,1,0,1,1,45,24c-4.058,0-6.944-1-8.579-2.984A7.746,7.746,0,0,1,34.98,15.2Z"/><path d="M25.757,28.03l.486,1.94C30.946,28.794,31,25.154,31,25l-2-.014C28.994,25.217,28.847,27.257,25.757,28.03Z"/><path d="M34,25H33c0,.154.054,3.794,4.757,4.97l.486-1.94c-3.09-.773-3.237-2.813-3.243-3.044Z"/><path d="M32,32c-3.461,0-7,.951-7,8,0,4.729,2.482,19,7,19s7-14.271,7-19C39,32.951,35.461,32,32,32Zm0,25c-1.766,0-5-9.995-5-17,0-5.548,2.265-6,5-6s5,.452,5,6C37,47.005,33.766,57,32,57Z"/><path d="M35,2H29A21.023,21.023,0,0,0,8,23V62H56V23A21.023,21.023,0,0,0,35,2ZM27.559,60,20,47.717V34a1,1,0,0,0-.684-.949L14,31.279V23A13.015,13.015,0,0,1,27,10H37A13.015,13.015,0,0,1,50,23v8.279l-5.316,1.772A1,1,0,0,0,44,34V47.717L36.441,60ZM14,33.388l4,1.333V46.9A5.009,5.009,0,0,1,14,42Zm36,0V42a5.009,5.009,0,0,1-4,4.9V34.721ZM54,60H38.789l6.784-11.023A7.01,7.01,0,0,0,52,42V23A15.017,15.017,0,0,0,37,8H27A15.017,15.017,0,0,0,12,23V42a7.01,7.01,0,0,0,6.427,6.977L25.211,60H10V23A19.021,19.021,0,0,1,29,4h6A19.021,19.021,0,0,1,54,23Z"/></g></svg>
