<?xml version="1.0"?>
<svg xmlns="http://www.w3.org/2000/svg" viewBox="0 0 64 64" width="512" height="512"><g id="Filled_outline" data-name="Filled outline"><path d="M51,41a22.7,22.7,0,0,0,4.958-15.432A23.752,23.752,0,0,0,35.51,3.249,24.012,24.012,0,0,0,8,27a22.582,22.582,0,0,0,5,14,5.411,5.411,0,0,0-3,5,4.947,4.947,0,0,0,5,5h4l-2,6,6,4,1-5h5v5h6V56h5l1,5,5-4-1-6h4a4.947,4.947,0,0,0,5-5A5.411,5.411,0,0,0,51,41Z" style="fill:#5a6470"/><path d="M14,22c-1.611,1.464-2,3.652-2,6a8,8,0,0,0,8,8,8.086,8.086,0,0,0,8-8Z" style="fill:#fff69a"/><path d="M50,22,36,28a8.086,8.086,0,0,0,8,8,8,8,0,0,0,8-8C52,25.652,51.611,23.464,50,22Z" style="fill:#fff69a"/><polygon points="37 43 36 40 33 38 31 38 28 40 27 43 30 46 32 43 34 46 37 43" style="fill:#e8e8e8"/><path d="M28,29a.992.992,0,0,1-.4-.084l-16-7,.8-1.832L27.775,26.81,28.783,25.8l-1.508-3.016-4.647-1.858.744-1.858,5,2a1,1,0,0,1,.523.482l2,4a1,1,0,0,1-.188,1.154l-2,2A1,1,0,0,1,28,29Z" style="fill:#143441"/><path d="M36,29a1,1,0,0,1-.707-.293l-2-2a1,1,0,0,1-.188-1.154l2-4a1,1,0,0,1,.523-.482l5-2,.744,1.858-4.647,1.858L35.217,25.8l1.008,1.007L51.6,20.084l.8,1.832-16,7A.992.992,0,0,1,36,29Z" style="fill:#143441"/><rect x="43.882" y="17.5" width="2.236" height="2" transform="translate(-3.523 22.078) rotate(-26.565)" style="fill:#143441"/><path d="M15.878,17.479l-1.756-.958A19.61,19.61,0,0,1,32.09,6L31.912,8A17.284,17.284,0,0,0,15.878,17.479Z" style="fill:#e8e8e8"/><path d="M37.293,8.707C36.834,8.249,35.085,8,34,8V6c.57,0,3.477.062,4.707,1.293Z" style="fill:#e8e8e8"/><path d="M56.957,25.51A24.66,24.66,0,0,0,35.65,2.259,25.012,25.012,0,0,0,7,27a23.2,23.2,0,0,0,4.549,13.71A6.512,6.512,0,0,0,9,46a5.937,5.937,0,0,0,6,6h2.613l-1.562,4.684a1,1,0,0,0,.394,1.148l6,4A1,1,0,0,0,23.98,61.2l.84-4.2H28v4a1,1,0,0,0,1,1h6a1,1,0,0,0,1-1V57h3.18l.84,4.2a1,1,0,0,0,1.6.585l5-4a1,1,0,0,0,.361-.946L46.181,52H49a5.937,5.937,0,0,0,6-6,6.512,6.512,0,0,0-2.549-5.29A23.234,23.234,0,0,0,56.957,25.51ZM50.2,40.4a1,1,0,0,0,.369,1.508A4.42,4.42,0,0,1,53,46a3.961,3.961,0,0,1-4,4H45a1,1,0,0,0-.986,1.165l.9,5.42-3.259,2.608L40.98,55.8A1,1,0,0,0,40,55H35a1,1,0,0,0-1,1v4H30V56a1,1,0,0,0-1-1H24a1,1,0,0,0-.98.8l-.708,3.536L18.19,56.592l1.759-5.276A1,1,0,0,0,19,50H15a3.961,3.961,0,0,1-4-4,4.42,4.42,0,0,1,2.428-4.1A1,1,0,0,0,13.8,40.4,21.608,21.608,0,0,1,9,27,23.011,23.011,0,0,1,35.37,4.24,22.678,22.678,0,0,1,54.96,25.626,21.579,21.579,0,0,1,50.2,40.4Z"/><path d="M28.973,28.441l1.734-1.734a1,1,0,0,0,.188-1.154l-2-4a1,1,0,0,0-.523-.482l-5-2-.744,1.858,4.647,1.858L28.783,25.8,27.775,26.81,12.4,20.084l-.8,1.832.847.371A9.945,9.945,0,0,0,11,28a8.992,8.992,0,0,0,17.973.441ZM20,35a7.008,7.008,0,0,1-7-7c0-2.242.387-3.759,1.243-4.808l12.719,5.451A7.068,7.068,0,0,1,20,35Z"/><path d="M36.949,39.684a1.007,1.007,0,0,0-.394-.516l-3-2A1.006,1.006,0,0,0,33,37H31a1.006,1.006,0,0,0-.555.168l-3,2a1.007,1.007,0,0,0-.394.516l-1,3a1,1,0,0,0,.242,1.023l3,3a1,1,0,0,0,1.539-.152L32,44.8l1.168,1.752A1,1,0,0,0,33.9,47,.831.831,0,0,0,34,47a1,1,0,0,0,.707-.293l3-3a1,1,0,0,0,.242-1.023ZM34.155,44.43l-1.323-1.985a1,1,0,0,0-1.664,0L29.845,44.43l-1.7-1.7.7-2.088L31.3,39H32.7l2.463,1.642.7,2.088Z"/><path d="M52.4,21.916l-.8-1.832L36.225,26.81,35.217,25.8l1.508-3.016,4.647-1.858-.744-1.858-5,2a1,1,0,0,0-.523.482l-2,4a1,1,0,0,0,.188,1.154l1.734,1.734A8.992,8.992,0,0,0,53,28a9.945,9.945,0,0,0-1.446-5.713ZM44,35a7.068,7.068,0,0,1-6.962-6.357l12.719-5.451C50.613,24.241,51,25.758,51,28A7.008,7.008,0,0,1,44,35Z"/><rect x="43.882" y="17.5" width="2.236" height="2" transform="translate(-3.523 22.078) rotate(-26.565)"/><path d="M31.912,8,32.09,6A19.61,19.61,0,0,0,14.122,16.521l1.756.958A17.284,17.284,0,0,1,31.912,8Z"/><rect x="16" y="40" width="2" height="2"/><path d="M38.707,7.293C37.477,6.062,34.57,6,34,6V8c1.086,0,2.835.249,3.294.707Z"/></g></svg>
