<svg height="384.374pt" viewBox="0 0 384.374 384.374" width="384.374pt" xmlns="http://www.w3.org/2000/svg"><path d="m6.398438 6.398438h371.199218v371.199218h-371.199218zm0 0" fill="#5a6470"/><path d="m32 160h51.199219v51.199219h-51.199219zm0 0" fill="#dd3e46"/><path d="m44.800781 211.199219h25.601563v89.601562h-25.601563zm0 0" fill="#aabece"/><path d="m108.800781 224h51.199219v51.199219h-51.199219zm0 0" fill="#dd3e46"/><path d="m121.597656 275.199219h25.601563v25.601562h-25.601563zm0 0" fill="#aabece"/><path d="m185.601562 198.398438h51.199219v51.203124h-51.199219zm0 0" fill="#dd3e46"/><path d="m198.398438 249.601562h25.601562v51.199219h-25.601562zm0 0" fill="#aabece"/><path d="m198.398438 160h25.601562v38.398438h-25.601562zm0 0" fill="#aabece"/><path d="m262.398438 185.601562h51.199218v51.199219h-51.199218zm0 0" fill="#dd3e46"/><path d="m275.199219 236.800781h25.601562v64h-25.601562zm0 0" fill="#aabece"/><path d="m275.199219 160h25.601562v25.601562h-25.601562zm0 0" fill="#aabece"/><path d="m121.597656 160h25.601563v64h-25.601563zm0 0" fill="#aabece"/><path d="m6.398438 326.398438h371.199218v51.203124h-371.199218zm0 0" fill="#aabece"/><path d="m38.398438 345.597656h38.402343v12.800782h-38.402343zm0 0" fill="#394d5c"/><path d="m115.199219 345.597656h38.398437v12.800782h-38.398437zm0 0" fill="#394d5c"/><path d="m192 345.597656h38.398438v12.800782h-38.398438zm0 0" fill="#394d5c"/><path d="m268.800781 345.597656h38.398438v12.800782h-38.398438zm0 0" fill="#394d5c"/><path d="m89.601562 57.601562c0 17.671876-14.328124 32-32 32-17.675781 0-32-14.328124-32-32 0-17.675781 14.324219-32 32-32 17.671876 0 32 14.324219 32 32zm0 0" fill="#f49e21"/><path d="m166.398438 57.601562c0 17.671876-14.324219 32-32 32-17.671876 0-32-14.328124-32-32 0-17.675781 14.328124-32 32-32 17.675781 0 32 14.324219 32 32zm0 0" fill="#f49e21"/><path d="m243.199219 57.601562c0 17.671876-14.324219 32-32 32-17.671875 0-32-14.328124-32-32 0-17.675781 14.328125-32 32-32 17.675781 0 32 14.324219 32 32zm0 0" fill="#f49e21"/><path d="m262.398438 32h89.601562v89.597656h-89.601562zm0 0" fill="#aabece"/><g fill="#f4f4e6"><path d="m38.398438 102.398438h38.402343v12.800781h-38.402343zm0 0"/><path d="m115.199219 102.398438h38.398437v12.800781h-38.398437zm0 0"/><path d="m192 102.398438h38.398438v12.800781h-38.398438zm0 0"/><path d="m38.398438 128h38.402343v12.800781h-38.402343zm0 0"/><path d="m115.199219 128h38.398437v12.800781h-38.398437zm0 0"/><path d="m192 128h38.398438v12.800781h-38.398438zm0 0"/><path d="m345.597656 204.800781c-7.066406 0-12.796875-5.730469-12.796875-12.800781s5.730469-12.800781 12.796875-12.800781c7.070313 0 12.800782 5.730469 12.800782 12.800781-.007813 7.066406-5.734376 12.792969-12.800782 12.800781zm0 0"/><path d="m345.597656 243.199219c-7.066406 0-12.796875-5.730469-12.796875-12.796875 0-7.070313 5.730469-12.800782 12.796875-12.800782 7.070313 0 12.800782 5.730469 12.800782 12.800782-.007813 7.0625-5.734376 12.789062-12.800782 12.796875zm0 0"/><path d="m345.597656 281.601562c-7.066406 0-12.796875-5.730468-12.796875-12.800781 0-7.070312 5.730469-12.800781 12.796875-12.800781 7.070313 0 12.800782 5.730469 12.800782 12.800781-.007813 7.066407-5.734376 12.789063-12.800782 12.800781zm0 0"/></g><path d="m32 51.199219h25.601562v12.800781h-25.601562zm0 0" fill="#394d5c"/><path d="m128 32h12.800781v25.601562h-12.800781zm0 0" fill="#394d5c"/><path d="m206.671875 53.074219 19.199219-19.199219 9.050781 9.050781-19.199219 19.199219zm0 0" fill="#394d5c"/><path d="m257.871094 117.074219 44.800781-44.796875 9.050781 9.050781-44.800781 44.796875zm0 0" fill="#5a6470"/><path d="m296.273438 117.074219 32-31.996094 9.046874 9.046875-32 32zm0 0" fill="#5a6470"/><path d="m25.601562 217.601562h12.796876v89.597657h38.402343v-89.597657h12.796875v-64h-63.996094zm38.398438 76.796876h-12.800781v-76.800782h12.800781zm-25.601562-128h38.402343v38.402343h-38.402343zm0 0"/><path d="m153.597656 153.597656h-38.398437v64h-12.800781v64h12.800781v25.601563h38.398437v-25.601563h12.800782v-64h-12.800782zm-25.597656 12.800782h12.800781v51.203124h-12.800781zm12.800781 128h-12.800781v-12.796876h12.800781zm12.796875-25.597657h-38.398437v-38.398437h38.398437zm0 0"/><path d="m230.398438 153.597656h-38.398438v38.402344h-12.800781v64h12.800781v51.199219h38.398438v-51.199219h12.800781v-64h-12.800781zm-25.597657 12.800782h12.796875v25.601562h-12.796875zm12.800781 128h-12.800781v-38.398438h12.800781zm12.796876-51.199219h-38.398438v-38.398438h38.398438zm0 0"/><path d="m307.199219 153.597656h-38.398438v25.601563h-12.800781v64h12.800781v64h38.398438v-64h12.800781v-64h-12.800781zm-25.597657 12.800782h12.796876v12.800781h-12.796876zm12.796876 128h-12.796876v-51.199219h12.796876zm12.800781-64h-38.398438v-38.398438h38.398438zm0 0"/><path d="m0 384h384v-384h-384zm12.800781-371.199219h358.398438v307.199219h-358.398438zm0 320h358.398438v38.398438h-358.398438zm0 0"/><path d="m38.398438 345.597656h38.402343v12.800782h-38.402343zm0 0"/><path d="m115.199219 345.597656h38.398437v12.800782h-38.398437zm0 0"/><path d="m192 345.597656h38.398438v12.800782h-38.398438zm0 0"/><path d="m268.800781 345.597656h38.398438v12.800782h-38.398438zm0 0"/><path d="m57.601562 25.601562c-17.675781 0-32 14.324219-32 32 0 17.671876 14.324219 32 32 32 17.671876 0 32-14.328124 32-32-.023437-17.667968-14.335937-31.980468-32-32zm0 51.199219c-8.113281-.027343-15.328124-5.152343-18.023437-12.800781h18.023437v-12.800781h-18.023437c3.554687-9.96875 14.519531-15.171875 24.488281-11.621094 9.972656 3.554687 15.175782 14.519531 11.621094 24.488281-2.722656 7.648438-9.96875 12.746094-18.085938 12.734375zm0 0"/><path d="m134.398438 25.601562c-17.671876 0-32 14.324219-32 32 0 17.671876 14.328124 32 32 32 17.675781 0 32-14.328124 32-32-.019532-17.667968-14.332032-31.980468-32-32zm0 51.199219c-10.574219.027344-19.171876-8.527343-19.199219-19.105469-.019531-8.144531 5.117187-15.414062 12.800781-18.113281v18.019531h12.800781v-18.023437c9.976563 3.511719 15.222657 14.441406 11.714844 24.421875-2.703125 7.683594-9.96875 12.820312-18.117187 12.800781zm0 0"/><path d="m211.199219 25.601562c-17.671875 0-32 14.324219-32 32 0 17.671876 14.328125 32 32 32 17.675781 0 32-14.328124 32-32-.019531-17.667968-14.335938-31.980468-32-32zm0 51.199219c-10.601563 0-19.199219-8.597656-19.199219-19.199219 0-10.605468 8.597656-19.203124 19.199219-19.203124 2.851562.015624 5.664062.671874 8.226562 1.925781l-12.75 12.75 9.050781 9.050781 12.75-12.75c1.25 2.5625 1.910157 5.375 1.925782 8.226562-.015625 10.597657-8.601563 19.1875-19.203125 19.199219zm0 0"/><path d="m256 128h102.398438v-102.398438h-102.398438zm12.800781-89.601562h76.800781v76.800781h-29.351562l21.074219-21.074219-9.050781-9.050781-30.121094 30.125h-20.300782l33.875-33.875-9.050781-9.046875-33.875 33.875zm0 0"/><path d="m38.398438 102.398438h38.402343v12.800781h-38.402343zm0 0"/><path d="m115.199219 102.398438h38.398437v12.800781h-38.398437zm0 0"/><path d="m192 102.398438h38.398438v12.800781h-38.398438zm0 0"/><path d="m38.398438 128h38.402343v12.800781h-38.402343zm0 0"/><path d="m115.199219 128h38.398437v12.800781h-38.398437zm0 0"/><path d="m192 128h38.398438v12.800781h-38.398438zm0 0"/><path d="m358.398438 192c0 7.070312-5.730469 12.800781-12.800782 12.800781-7.066406 0-12.796875-5.730469-12.796875-12.800781s5.730469-12.800781 12.796875-12.800781c7.070313 0 12.800782 5.730469 12.800782 12.800781zm0 0"/><path d="m358.398438 230.398438c0 7.070312-5.730469 12.800781-12.800782 12.800781-7.066406 0-12.796875-5.730469-12.796875-12.800781 0-7.066407 5.730469-12.796876 12.796875-12.796876 7.070313 0 12.800782 5.730469 12.800782 12.796876zm0 0"/><path d="m358.398438 268.800781c0 7.070313-5.730469 12.800781-12.800782 12.800781-7.066406 0-12.796875-5.730468-12.796875-12.800781 0-7.070312 5.730469-12.800781 12.796875-12.800781 7.070313 0 12.800782 5.730469 12.800782 12.800781zm0 0"/></svg>