<svg height="480pt" viewBox="0 -16 480 479" width="480pt" xmlns="http://www.w3.org/2000/svg"><path d="m8 88.503906h464v304h-464zm0 0" fill="#aabece"/><path d="m56 136.503906h304v208h-304zm0 0" fill="#5a6470"/><path d="m432 184.503906c0 8.835938-7.164062 16-16 16s-16-7.164062-16-16c0-8.835937 7.164062-16 16-16s16 7.164063 16 16zm0 0" fill="#fdbd40"/><path d="m440 264.503906c0 13.253906-10.746094 24-24 24s-24-10.746094-24-24 10.746094-24 24-24 24 10.746094 24 24zm0 0" fill="#fdbd40"/><g fill="#5a6470"><path d="m383.199219 4.929688c-1.972657-3.957032-6.78125-5.5625-10.734375-3.585938l-94.351563 47.160156h-28.226562l-94.3125-47.160156c-3.953125-1.972656-8.757813-.371094-10.734375 3.585938-1.976563 3.953124-.371094 8.761718 3.585937 10.734374l91.574219 45.785157v27.054687c0 4.417969 3.582031 8 8 8h32c4.417969 0 8-3.582031 8-8v-27.054687l91.574219-45.746094c1.917969-.9375 3.378906-2.605469 4.0625-4.632813.679687-2.023437.523437-4.234374-.4375-6.140624zm0 0"/><path d="m48 392.503906h48v48h-48zm0 0"/><path d="m384 392.503906h48v48h-48zm0 0"/></g><path d="m88 208.503906c-4.417969 0-8-3.582031-8-8v-32c0-4.417968 3.582031-8 8-8h32c4.417969 0 8 3.582032 8 8 0 4.417969-3.582031 8-8 8h-24v24c0 4.417969-3.582031 8-8 8zm0 0" fill="#aabece"/><path d="m328 320.503906h-32c-4.417969 0-8-3.582031-8-8 0-4.417968 3.582031-8 8-8h24v-24c0-4.417968 3.582031-8 8-8s8 3.582032 8 8v32c0 4.417969-3.582031 8-8 8zm0 0" fill="#aabece"/><path d="m408 352.503906h-16c-4.417969 0-8-3.582031-8-8 0-4.417968 3.582031-8 8-8h16c4.417969 0 8 3.582032 8 8 0 4.417969-3.582031 8-8 8zm0 0" fill="#5a6470"/><path d="m432 336.503906h16v16h-16zm0 0" fill="#5a6470"/><path d="m472 80.503906h-184v-19.054687l91.574219-45.746094c3.957031-1.972656 5.5625-6.78125 3.585937-10.734375-1.976562-3.953125-6.78125-5.558594-10.734375-3.585938l-94.3125 47.121094h-28.226562l-94.3125-47.160156c-3.953125-1.972656-8.757813-.371094-10.734375 3.585938-1.976563 3.953124-.371094 8.761718 3.585937 10.734374l91.574219 45.785157v19.054687h-232c-4.417969 0-8 3.582032-8 8v304c0 4.417969 3.582031 8 8 8h32v40c0 4.417969 3.582031 8 8 8h48c4.417969 0 8-3.582031 8-8v-40h272v40c0 4.417969 3.582031 8 8 8h48c4.417969 0 8-3.582031 8-8v-40h32c4.417969 0 8-3.582031 8-8v-304c0-4.417968-3.582031-8-8-8zm-216-16h16v16h-16zm-168 368h-32v-32h32zm336 0h-32v-32h32zm40-48h-448v-288h448zm0 0"/><path d="m48 136.503906v208c0 4.417969 3.582031 8 8 8h304c4.417969 0 8-3.582031 8-8v-208c0-4.417968-3.582031-8-8-8h-304c-4.417969 0-8 3.582032-8 8zm16 8h288v192h-288zm0 0"/><path d="m416 208.503906c13.253906 0 24-10.746094 24-24s-10.746094-24-24-24-24 10.746094-24 24 10.746094 24 24 24zm0-32c4.417969 0 8 3.582032 8 8 0 4.417969-3.582031 8-8 8s-8-3.582031-8-8c0-4.417968 3.582031-8 8-8zm0 0"/><path d="m416 296.503906c17.671875 0 32-14.328125 32-32s-14.328125-32-32-32-32 14.328125-32 32 14.328125 32 32 32zm0-48c8.835938 0 16 7.164063 16 16 0 8.835938-7.164062 16-16 16s-16-7.164062-16-16c0-8.835937 7.164062-16 16-16zm0 0"/><path d="m120 160.503906h-32c-4.417969 0-8 3.582032-8 8v32c0 4.417969 3.582031 8 8 8s8-3.582031 8-8v-24h24c4.417969 0 8-3.582031 8-8 0-4.417968-3.582031-8-8-8zm0 0"/><path d="m328 272.503906c-4.417969 0-8 3.582032-8 8v24h-24c-4.417969 0-8 3.582032-8 8 0 4.417969 3.582031 8 8 8h32c4.417969 0 8-3.582031 8-8v-32c0-4.417968-3.582031-8-8-8zm0 0"/><path d="m392 352.503906h16c4.417969 0 8-3.582031 8-8 0-4.417968-3.582031-8-8-8h-16c-4.417969 0-8 3.582032-8 8 0 4.417969 3.582031 8 8 8zm0 0"/><path d="m432 336.503906h16v16h-16zm0 0"/></svg>