<svg height="480pt" viewBox="0 -80 480 479" width="480pt" xmlns="http://www.w3.org/2000/svg"><path d="m184 88.5h208v208h-208zm0 0" fill="#394d5c"/><path d="m120 254.570312-112 57.929688v-240l112 57.929688zm0 0" fill="#394d5c"/><path d="m120 112.5h64v160h-64zm0 0" fill="#aabece"/><path d="m264 24.5h160v32h-160zm0 0" fill="#394d5c"/><path d="m264 56.5h64v32h-64zm0 0" fill="#aabece"/><path d="m424 8.5h48v64h-48zm0 0" fill="#aabece"/><path d="m216 136.5h144v80h-144zm0 0" fill="#f4f4e6"/><path d="m360 256.5h-16c-4.417969 0-8-3.582031-8-8s3.582031-8 8-8h16c4.417969 0 8 3.582031 8 8s-3.582031 8-8 8zm0 0" fill="#fff"/><path d="m392 112.5h32v160h-32zm0 0" fill="#aabece"/><path d="m40 152.5c-4.417969 0-8-3.582031-8-8v-16c0-4.417969 3.582031-8 8-8s8 3.582031 8 8v16c0 4.417969-3.582031 8-8 8zm0 0" fill="#fff"/><path d="m40 272.5c-4.417969 0-8-3.582031-8-8v-88c0-4.417969 3.582031-8 8-8s8 3.582031 8 8v88c0 4.417969-3.582031 8-8 8zm0 0" fill="#fff"/><path d="m472 .5h-48c-4.417969 0-8 3.582031-8 8v8h-152c-4.417969 0-8 3.582031-8 8v56h-72c-4.417969 0-8 3.582031-8 8v16h-56c-4.417969 0-8 3.582031-8 8v4.800781l-100.328125-51.90625c-2.480469-1.28125-5.445313-1.175781-7.832031.273438-2.382813 1.453125-3.839844 4.042969-3.839844 6.832031v240c0 2.789062 1.457031 5.378906 3.839844 6.832031 2.386718 1.449219 5.351562 1.554688 7.832031.273438l100.328125-51.90625v4.800781c0 4.417969 3.582031 8 8 8h56v16c0 4.417969 3.582031 8 8 8h208c4.417969 0 8-3.582031 8-8v-16h24c4.417969 0 8-3.582031 8-8v-160c0-4.417969-3.582031-8-8-8h-24v-16c0-4.417969-3.582031-8-8-8h-56v-16h80v8c0 4.417969 3.582031 8 8 8h48c4.417969 0 8-3.582031 8-8v-64c0-4.417969-3.582031-8-8-8zm-360 249.199219-96 49.65625v-213.710938l96 49.65625zm64 14.800781h-48v-144h48zm224-144h16v144h-16zm-128-56h48v16h-48zm112 32v192h-192v-192zm32-48h-144v-16h144zm48 16h-32v-48h32zm0 0"/><path d="m208 136.5v80c0 4.417969 3.582031 8 8 8h144c4.417969 0 8-3.582031 8-8v-80c0-4.417969-3.582031-8-8-8h-144c-4.417969 0-8 3.582031-8 8zm16 8h128v64h-128zm0 0"/><path d="m360 240.5h-16c-4.417969 0-8 3.582031-8 8s3.582031 8 8 8h16c4.417969 0 8-3.582031 8-8s-3.582031-8-8-8zm0 0"/><path d="m40 152.5c4.417969 0 8-3.582031 8-8v-16c0-4.417969-3.582031-8-8-8s-8 3.582031-8 8v16c0 4.417969 3.582031 8 8 8zm0 0"/><path d="m40 272.5c4.417969 0 8-3.582031 8-8v-88c0-4.417969-3.582031-8-8-8s-8 3.582031-8 8v88c0 4.417969 3.582031 8 8 8zm0 0"/></svg>